<?xml version="1.0" encoding="UTF-8" standalone="no"?>
<svg
   xmlns:dc="http://purl.org/dc/elements/1.1/"
   xmlns:cc="http://creativecommons.org/ns#"
   xmlns:rdf="http://www.w3.org/1999/02/22-rdf-syntax-ns#"
   xmlns:svg="http://www.w3.org/2000/svg"
   xmlns="http://www.w3.org/2000/svg"
   xmlns:sodipodi="http://sodipodi.sourceforge.net/DTD/sodipodi-0.dtd"
   xmlns:inkscape="http://www.inkscape.org/namespaces/inkscape"
   width="600"
   height="600"
   viewBox="0 0 158.75 158.75"
   version="1.1"
   id="svg34347"
   inkscape:version="1.0.2 (e86c870879, 2021-01-15)"
   sodipodi:docname="logo-cool-douche-yellow.svg"
   inkscape:export-filename="/home/elise/Documents/cool-douche/logo-cool-douche.png"
   inkscape:export-xdpi="150"
   inkscape:export-ydpi="150">
  <defs
     id="defs34341">
    <inkscape:path-effect
       effect="spiro"
       id="path-effect1432"
       is_visible="true"
       lpeversion="1" />
    <inkscape:path-effect
       effect="simplify"
       id="path-effect1430"
       is_visible="true"
       lpeversion="1"
       steps="1"
       threshold="0.00275"
       smooth_angles="360"
       helper_size="0"
       simplify_individual_paths="false"
       simplify_just_coalesce="false" />
    <inkscape:path-effect
       effect="spiro"
       id="path-effect67"
       is_visible="true"
       lpeversion="1" />
    <inkscape:path-effect
       effect="simplify"
       id="path-effect65"
       is_visible="true"
       lpeversion="1"
       steps="1"
       threshold="0.00275"
       smooth_angles="360"
       helper_size="0"
       simplify_individual_paths="false"
       simplify_just_coalesce="false" />
    <inkscape:path-effect
       effect="simplify"
       id="path-effect59"
       is_visible="true"
       lpeversion="1"
       steps="1"
       threshold="0.00275"
       smooth_angles="360"
       helper_size="0"
       simplify_individual_paths="false"
       simplify_just_coalesce="false" />
    <inkscape:path-effect
       effect="simplify"
       id="path-effect1231"
       is_visible="true"
       lpeversion="1"
       steps="1"
       threshold="0.00275"
       smooth_angles="360"
       helper_size="0"
       simplify_individual_paths="false"
       simplify_just_coalesce="false" />
    <inkscape:path-effect
       effect="spiro"
       id="path-effect1233"
       is_visible="true"
       lpeversion="1" />
    <inkscape:path-effect
       effect="simplify"
       id="path-effect3367"
       is_visible="true"
       lpeversion="1"
       steps="1"
       threshold="0.00275"
       smooth_angles="360"
       helper_size="0"
       simplify_individual_paths="false"
       simplify_just_coalesce="false" />
    <inkscape:path-effect
       effect="spiro"
       id="path-effect3369"
       is_visible="true"
       lpeversion="1" />
  </defs>
  <sodipodi:namedview
     id="base"
     pagecolor="#ffffff"
     bordercolor="#666666"
     borderopacity="1.0"
     inkscape:pageopacity="0.0"
     inkscape:pageshadow="2"
     inkscape:zoom="0.63144795"
     inkscape:cx="126.72153"
     inkscape:cy="59.415858"
     inkscape:document-units="px"
     inkscape:current-layer="layer1"
     inkscape:document-rotation="0"
     showgrid="false"
     fit-margin-top="0"
     fit-margin-left="0"
     fit-margin-right="0"
     fit-margin-bottom="0"
     inkscape:window-width="1920"
     inkscape:window-height="1088"
     inkscape:window-x="0"
     inkscape:window-y="0"
     inkscape:window-maximized="1"
     units="px" />
  <metadata
     id="metadata34344">
    <rdf:RDF>
      <cc:Work
         rdf:about="">
        <dc:format>image/svg+xml</dc:format>
        <dc:type
           rdf:resource="http://purl.org/dc/dcmitype/StillImage" />
        <dc:title />
      </cc:Work>
    </rdf:RDF>
  </metadata>
  <g
     inkscape:label="Layer 1"
     inkscape:groupmode="layer"
     id="layer1"
     transform="translate(-22.219568,-23.908722)">
    <path
       style="fill:#933a00;fill-opacity:0.819805;stroke:none;stroke-width:0.264583px;stroke-linecap:butt;stroke-linejoin:miter;stroke-opacity:1"
       d="m 103.21115,38.341934 c -11.453095,-0.528667 -23.315547,-0.419496 -33.835766,4.138777 -4.328737,1.875585 -8.328185,4.470718 -11.940954,7.504475 -13.007395,10.922723 -20.578894,27.0755 -25.096799,43.448855 -2.069315,7.499409 -3.587769,15.196229 -3.752212,22.974159 -0.164442,7.77793 1.063231,15.6625 4.286905,22.74284 4.833967,10.61712 13.914683,18.87122 24.093371,24.57076 17.905607,10.02621 39.272202,12.7038 59.669485,10.44848 7.87065,-0.87025 15.70157,-2.45304 23.08419,-5.31683 7.38263,-2.86379 14.32072,-7.04308 19.87028,-12.69169 8.18242,-8.32845 12.96723,-19.39536 16.50994,-30.5203 3.713,-11.65971 6.27094,-24.08062 4.01166,-36.106874 -0.92373,-4.917057 -2.64145,-9.670694 -4.9131,-14.12831 -6.81067,-13.36445 -18.68522,-23.953794 -32.51068,-29.771902 -12.39969,-5.218108 -26.03771,-6.672123 -39.47632,-7.29244 z"
       id="path1428"
       inkscape:path-effect="#path-effect1430;#path-effect1432"
       inkscape:original-d="m 103.21115,38.341934 c -11.53379,0 -32.677606,0.829094 -42.139848,8.460558 C 29.552916,72.222617 9.6886613,143.41293 57.52316,163.96496 c 39.646081,17.03388 100.14144,18.09229 116.66472,-31.86185 4.83986,-14.63215 9.93605,-42.484964 2.38224,-54.552682 C 157.14847,46.523046 133.88268,38.341934 103.21115,38.341934 Z"
       sodipodi:nodetypes="ssssss" />
    <path
       style="fill:#ffd500;fill-opacity:1;stroke:none;stroke-width:0.264583px;stroke-linecap:butt;stroke-linejoin:miter;stroke-opacity:1"
       d="M 98.077311,34.305235 C 86.624217,33.776568 74.761767,33.885741 64.241548,38.444013 59.912811,40.319598 55.913362,42.914731 52.300593,45.948488 39.293198,56.87121 31.721699,73.023987 27.203795,89.397342 25.13448,96.896755 23.616026,104.59357 23.451584,112.3715 c -0.164443,7.77793 1.063231,15.6625 4.286904,22.74284 4.833966,10.61712 13.914682,18.87122 24.09337,24.57076 17.905606,10.02621 39.2722,12.7038 59.669482,10.44848 7.87065,-0.87025 15.70157,-2.45304 23.08419,-5.31683 7.38263,-2.86379 14.32072,-7.04308 19.87028,-12.69169 8.18242,-8.32845 12.96722,-19.39536 16.50993,-30.5203 3.713,-11.65971 6.27095,-24.080618 4.01167,-36.106874 -0.92373,-4.917057 -2.64145,-9.670693 -4.9131,-14.128309 -6.81067,-13.364449 -18.68522,-23.953794 -32.51068,-29.771902 -12.39969,-5.218108 -26.03771,-6.672124 -39.476319,-7.29244 z"
       id="path63"
       inkscape:path-effect="#path-effect65;#path-effect67"
       inkscape:original-d="m 98.077311,34.305235 c -11.533787,0 -32.677602,0.829095 -42.139846,8.460559 C 24.41908,68.185918 4.5548255,139.37623 52.389323,159.92826 92.035406,176.96214 152.53077,178.02055 169.05403,128.06641 173.89389,113.43426 178.9901,85.581447 171.43628,73.513729 152.01462,42.486347 128.74885,34.305235 98.077311,34.305235 Z"
       sodipodi:nodetypes="ssssss" />
    <path
       d="m 44.678278,105.79339 c 2.971958,-0.002 4.207618,-0.65913 4.86076,-3.2911 0.414367,-1.6686 1.093573,-3.269519 1.582316,-4.921762 1.037776,-3.507578 2.218377,-6.986878 2.327715,-10.698287 0.02298,-0.776651 -0.02235,-1.581558 0.169543,-2.319534 0.32211,-1.236398 2.036098,-1.926738 3.141564,-1.302592 0.273757,0.154782 0.539332,0.6182 0.529674,0.93139 -0.05124,1.591237 -0.224665,3.178003 -0.298324,4.768501 -0.256655,5.504242 -2.010054,10.710941 -3.095445,16.052264 -0.760265,3.74264 -1.079424,7.57606 -0.659847,11.43253 0.247735,2.27266 0.290121,4.5669 0.466433,6.84777 0.04977,0.64497 0.220954,1.28472 0.38164,1.91558 0.499161,1.96022 1.04891,3.90853 1.506423,5.87843 0.08182,0.35263 -0.06474,0.99908 -0.310217,1.13076 -0.379384,0.20454 -1.025102,0.25814 -1.399299,0.067 -1.077947,-0.55124 -1.911133,-1.31374 -2.421449,-2.54567 -1.135221,-2.74135 -1.841207,-5.56378 -2.293511,-8.48141 -0.1978,-1.27434 -0.441128,-1.21706 -1.667848,-0.80419 -1.751944,0.58844 -2.745057,2.05695 -3.748607,3.32756 -1.774993,2.24737 -5.56451,2.35375 -7.663849,0.63306 -0.58545,-0.47982 -1.03107,-1.30854 -1.223745,-2.05841 -0.819057,-3.19067 -0.363779,-6.23329 1.477427,-8.99472 1.118857,-1.67753 2.247372,-3.36549 3.549227,-4.8972 0.761024,-0.89568 1.825581,-1.57265 2.846972,-2.19233 0.543803,-0.32956 1.288463,-0.32882 1.942363,-0.47758 m -5.841978,13.87405 c 0.04238,0.0168 0.08477,0.0335 0.128001,0.0506 0.07296,0.48504 0.113872,0.97677 0.224665,1.45288 0.302035,1.30557 0.996107,1.52429 1.987006,0.65314 1.791356,-1.57561 3.491193,-3.22785 4.609312,-5.37778 0.945519,-1.81738 1.981059,-3.59684 2.794886,-5.47151 0.647954,-1.49229 -0.467909,-2.8001 -2.07998,-2.47725 -0.749869,0.14951 -1.503471,0.62118 -2.101573,1.12778 -1.911133,1.61877 -3.309695,3.6534 -4.258924,5.95656 -0.542326,1.31748 -0.875592,2.7205 -1.303351,4.08559"
       style="fill:#462d7f;fill-opacity:1;fill-rule:nonzero;stroke:none;stroke-width:0.352778"
       id="path30184" />
    <path
       d="m 141.44421,111.26258 c -0.33623,2.50106 -0.71117,4.8273 -0.94181,7.1669 -0.15541,1.57787 -0.31466,3.20481 -0.10037,4.75811 0.31095,2.25408 0.98048,4.45681 1.44841,6.69229 0.13771,0.65761 0.22912,1.3673 0.13243,2.02271 -0.1474,0.99684 -0.92766,1.29367 -1.72514,0.66284 -0.57727,-0.45752 -1.18505,-1.00876 -1.49006,-1.65448 -0.98719,-2.09116 -1.85163,-4.23959 -2.74282,-6.37463 -0.75955,-1.81963 -0.40471,-3.65561 -0.0945,-5.50871 0.32882,-1.9647 0.54157,-3.94873 0.79227,-5.92606 0.0371,-0.29087 0.0168,-0.59068 -0.001,-0.88451 -0.0922,-1.45956 -0.37272,-1.58084 -1.72664,-1.01694 -1.97735,0.82351 -2.85665,2.5985 -3.86763,4.26637 -0.8451,1.39485 -1.62546,2.82837 -2.48469,4.2143 -0.40246,0.64869 -0.92692,1.20736 -1.83079,1.06975 -1.00652,-0.15394 -1.95873,-0.4218 -2.36418,-1.48264 -0.36375,-0.9537 -0.59065,-1.91335 -0.16447,-2.95484 0.8503,-2.07999 1.65224,-4.18007 2.41847,-6.29205 0.5066,-1.39707 0.91502,-2.82986 1.37178,-4.24555 0.35038,-1.08834 0.72458,-2.17 1.05711,-3.26429 0.73277,-2.40732 1.45659,-4.816877 2.16258,-7.232378 0.50363,-1.721431 0.93658,-3.464434 1.46402,-5.17842 0.53117,-1.725143 1.67604,-2.832085 3.50163,-3.137832 1.05488,-0.176291 1.53023,0.153306 1.33905,1.170184 -0.43223,2.299437 -0.87856,4.611548 -1.55851,6.846268 -0.99463,3.270998 -2.49511,6.389518 -2.86259,9.846508 -0.15922,1.50418 -0.0433,1.64553 1.43278,1.56295 1.26242,-0.0715 2.54867,-0.27673 3.78505,-0.1183 1.16647,0.15036 2.06958,0.9165 2.36715,2.18265 0.22987,0.97901 0.47461,1.95429 0.68291,2.80978"
       style="fill:#462d7f;fill-opacity:1;fill-rule:nonzero;stroke:none;stroke-width:0.352778"
       id="path30188" />
    <path
       d="m 67.232469,105.0537 c 1.884331,-0.13095 3.773892,-0.40989 5.6508,-0.34444 1.404508,0.0492 2.838031,0.41214 4.174869,0.87709 1.203652,0.41882 1.683476,1.65521 1.960206,2.78671 0.796746,3.25315 0.488765,6.36347 -1.588264,9.14051 -0.665057,0.88899 -1.298882,1.80178 -2.001136,2.65951 -1.619515,1.97585 -3.752319,3.35805 -5.923059,4.58255 -1.355438,0.76474 -2.995027,1.23861 -4.552039,1.39112 -3.114045,0.30574 -4.952257,-1.42608 -6.710886,-4.59519 -1.069745,-1.92823 -1.646296,-3.97625 -2.049488,-6.0964 -0.346677,-1.82334 0.137701,-3.57156 1.073477,-5.07873 2.269683,-3.65412 5.580115,-5.53771 9.96552,-5.32273 m 4.173373,4.26117 c -1.690179,-0.29757 -3.483033,0.49544 -5.339107,1.00354 -3.09321,0.84584 -5.30933,2.46013 -5.960996,5.84495 -0.417341,2.1715 0.878566,4.01569 2.01229,4.34671 1.776468,0.52 3.562616,0.45528 5.300411,-0.19927 2.111991,-0.79599 3.762736,-2.24069 5.369598,-3.78134 1.388144,-1.33087 2.392433,-2.84623 2.878963,-4.69636 0.374196,-1.42384 -0.426263,-2.47427 -1.891037,-2.51518 -0.688126,-0.019 -1.376989,-0.002 -2.370122,-0.002"
       style="fill:#462d7f;fill-opacity:1;fill-rule:nonzero;stroke:none;stroke-width:0.352778"
       id="path30192" />
    <path
       d="m 97.520186,92.075843 c -0.27079,1.159008 -0.57506,3.390776 -1.34947,5.445472 -0.49174,1.305565 -1.54959,2.488405 -2.58958,3.478565 -1.62473,1.54512 -3.739667,1.22298 -5.692447,0.85402 -2.456434,-0.46422 -4.766288,-1.41271 -6.68263,-3.083556 -1.873175,-1.633643 -2.57098,-3.823742 -2.641643,-6.228067 -0.07064,-2.396903 0.574295,-4.539387 2.14398,-6.451996 1.237874,-1.50868 2.219832,-3.226377 3.33424,-4.839187 1.023626,-1.481898 2.604445,-2.224323 4.21949,-2.679601 1.972876,-0.556455 3.63181,0.469407 5.09434,1.700597 3.15645,2.655793 4.05883,7.038942 4.16372,11.803753 m -4.2463,-2.868566 c -0.20012,-2.335896 -0.36822,-4.262634 -1.62246,-5.877678 -0.92916,-1.195489 -2.095628,-2.109018 -3.660822,-1.791357 -1.978824,0.400218 -3.008418,1.959466 -3.750843,3.700233 -0.21796,0.510337 -0.02826,0.802693 0.591418,0.787067 0.51776,-0.01266 1.059348,-0.0021 1.549589,0.139177 0.293833,0.08562 0.508081,0.443385 0.758789,0.678468 -0.294592,0.129476 -0.578027,0.334762 -0.883774,0.374934 -1.324923,0.173339 -2.401374,0.692575 -3.162398,1.853839 -0.751346,1.145638 -0.585472,2.370122 -0.48577,3.607996 0.224665,2.789699 1.776468,4.64204 4.209832,5.801069 1.406742,0.668788 3.764209,-0.52223 4.772969,-2.204227 1.39038,-2.318037 1.58974,-4.872653 1.68347,-7.069457"
       style="fill:#ef373e;fill-opacity:1;fill-rule:nonzero;stroke:none;stroke-width:0.352778"
       id="path30196" />
    <path
       d="m 81.31156,112.8806 c 0.400956,-1.2535 0.712671,-2.54567 1.234901,-3.74711 0.34071,-0.78408 2.932524,-1.63588 3.672714,-1.22896 0.380881,0.20983 0.700778,0.84881 0.733506,1.31527 0.136224,1.89475 -0.01054,3.82001 0.253681,5.69097 0.25442,1.79433 0.805667,3.56262 1.387406,5.2885 0.348153,1.03404 1.556273,1.37327 2.878218,0.9195 2.92509,-1.00282 5.03185,-3.00395 6.48546,-5.67537 1.13896,-2.09413 2.129854,-4.26785 3.227884,-6.38504 0.8607,-1.65819 2.14248,-1.82706 3.46367,-0.51182 1.45808,1.44991 1.56669,2.58735 0.32955,4.21504 -2.01527,2.65133 -4.00897,5.32125 -6.108304,7.90488 -1.47891,1.82035 -3.38036,3.04188 -5.61731,3.91077 -1.86055,0.72309 -3.708441,0.82129 -5.473755,0.34965 -2.121648,-0.56613 -3.863913,-1.89774 -4.705281,-4.0975 -0.968588,-2.53156 -1.425342,-5.15834 -1.481898,-7.86173 -0.09363,-0.0291 -0.186624,-0.058 -0.280442,-0.0871"
       style="fill:#ef373e;fill-opacity:1;fill-rule:nonzero;stroke:none;stroke-width:0.352778"
       id="path30200" />
    <path
       d="m 151.81324,104.80114 c 1.05933,0.3199 2.28384,0.46123 3.25911,1.02883 2.47277,1.438 2.19678,3.90335 1.22672,6.04286 -0.99314,2.19084 -2.83656,3.52989 -4.84961,4.66138 -1.66786,0.93807 -1.99445,1.80921 -1.23118,3.5351 0.39947,0.90311 1.18283,1.28104 2.05098,1.13001 1.49974,-0.26037 2.98906,-0.6353 4.44341,-1.08835 1.8494,-0.57578 3.65488,-1.29443 5.49609,-1.90145 0.21869,-0.0721 0.78483,0.21275 0.77665,0.25666 -0.0812,0.44038 -0.11683,1.0675 -0.41363,1.25945 -1.39038,0.90087 -2.78747,1.86499 -4.3177,2.45864 -2.05395,0.79673 -4.20462,1.64777 -6.36273,1.80622 -3.81109,0.27823 -6.60079,-2.00039 -7.1617,-6.09639 -0.29979,-2.19605 -0.093,-4.35043 0.42924,-6.42969 0.59663,-2.3716 1.84566,-4.47988 4.0075,-5.81149 0.71638,-0.44114 1.6433,-0.54157 2.64685,-0.85178 m -2.36715,6.73841 c -0.0506,2.07329 0.68589,2.60818 1.89551,1.89253 0.97156,-0.57432 1.89551,-1.25424 2.75027,-1.99221 0.93062,-0.8027 0.99089,-2.01603 0.26928,-2.78523 -0.91724,-0.97677 -2.6052,-1.2498 -3.40787,-0.50587 -1.1583,1.07348 -1.46107,2.49435 -1.50719,3.39078"
       style="fill:#462d7f;fill-opacity:1;fill-rule:nonzero;stroke:none;stroke-width:0.352778"
       id="path30204" />
    <path
       d="m 115.33597,88.505108 c -0.19485,3.538071 -1.03479,6.678897 -3.1929,9.302679 -1.97137,2.396163 -3.97995,2.772593 -6.70567,1.631409 -2.06438,-0.865176 -3.86539,-2.187843 -5.09955,-4.139885 -1.654484,-2.617858 -1.483384,-5.731143 0.54157,-8.095319 1.92378,-2.245895 4.31621,-3.976246 6.8857,-5.353235 2.96748,-1.590497 4.26339,-0.883773 6.25933,1.992953 1.0065,1.450647 1.26316,3.130408 1.31152,4.661398 m -7.61771,-1.086867 c 0.0433,0.107124 0.0856,0.214248 0.128,0.321372 -0.2998,0.14213 -0.59439,0.393534 -0.90014,0.408401 -2.27268,0.110919 -4.22472,2.314345 -3.82077,4.876384 0.24847,1.573397 0.84435,3.035937 2.47131,3.617676 1.39558,0.49916 2.41549,-0.473139 3.393,-1.280282 1.74298,-1.437993 2.33663,-3.497898 2.86184,-5.564509 0.34892,-1.372518 0.51034,-2.768105 -0.0468,-4.14659 -0.3437,-0.850309 -1.27286,-1.657452 -1.99371,-1.490819 -1.54289,0.354859 -2.84027,1.172419 -4.01343,2.436337 0.73572,0.314666 1.32864,0.568348 1.92079,0.82203"
       style="fill:#ef373e;fill-opacity:1;fill-rule:nonzero;stroke:none;stroke-width:0.352778"
       id="path30208" />
    <path
       d="m 120.49132,122.98458 c 0.61299,0 1.59199,0.0127 2.5695,-0.002 1.06454,-0.0168 1.62173,0.32581 1.69315,1.07569 0.0856,0.89642 -0.48356,1.65597 -1.46106,1.77128 -2.6543,0.31393 -5.25727,0.0871 -7.85874,-0.60631 -2.79415,-0.74466 -5.04376,-2.23919 -6.91174,-4.37869 -2.06065,-2.36045 -2.40285,-5.83454 -0.83169,-8.47694 1.96691,-3.3082 4.61376,-5.93795 7.83196,-7.92124 1.96914,-1.2126 4.19346,-2.12166 6.54349,-0.60927 0.91429,0.58843 1.34576,2.09561 0.6554,2.92138 -0.23211,0.27673 -0.80864,0.38088 -1.22301,0.37193 -2.65354,-0.0603 -5.0683,0.77221 -6.82172,2.65654 -1.46401,1.57339 -2.59105,3.5247 -3.58048,5.45515 -0.8183,1.5972 0.27973,4.25 1.68647,5.49308 1.68571,1.49008 5.07427,2.31879 7.70847,2.25037"
       style="fill:#462d7f;fill-opacity:1;fill-rule:nonzero;stroke:none;stroke-width:0.352778"
       id="path30212" />
    <path
       d="m 118.13162,95.731603 c 0.31021,-1.663419 0.5319,-3.349865 0.94775,-4.986482 1.21556,-4.784148 2.51594,-9.546703 3.76868,-14.32191 0.57208,-2.18042 1.16126,-4.357866 1.63812,-6.559879 0.22613,-1.043701 0.17249,-2.146195 0.31468,-3.212966 0.0736,-0.552743 0.0938,-1.198462 0.97675,-1.208879 0.91279,-0.01054 1.682,0.213511 1.92676,1.142665 0.17924,0.680681 0.2559,1.443202 0.14867,2.133563 -0.31023,1.998899 -0.70449,3.987401 -1.12331,5.967701 -0.84434,3.990375 -1.65671,7.988932 -2.61488,11.951788 -0.81384,3.364732 -1.7906,6.690052 -2.75027,10.017586 -0.18599,0.642745 -0.58397,1.241607 -0.97601,1.795827 -0.10122,0.142129 -0.59887,0.140653 -0.83171,0.03058 -1.1553,-0.546039 -1.3993,-1.554039 -1.42534,-2.749506"
       style="fill:#462d7f;fill-opacity:1;fill-rule:nonzero;stroke:none;stroke-width:0.352778"
       id="path30216" />
    <path
       d="m 74.559678,98.890796 c -2.956332,-0.02678 -5.871733,-0.461984 -8.598191,-1.573397 -3.478561,-1.418657 -4.606338,-4.548306 -3.009155,-7.963627 1.310036,-2.803827 3.082055,-5.318272 5.545911,-7.209309 1.111413,-0.851784 2.556092,-1.436518 3.972514,-0.575054 0.516284,0.313929 0.951464,0.967829 1.141905,1.557771 0.222452,0.691098 -0.502872,0.848053 -1.007262,1.086108 -2.065114,0.976033 -4.139147,1.983295 -5.456626,3.948728 -0.604809,0.903111 -1.083894,1.933443 -1.408241,2.971936 -0.411394,1.320453 0.338475,2.369384 1.39932,2.965273 1.170922,0.658349 2.471279,1.19397 3.782074,1.474433 1.876908,0.402454 3.819272,0.488765 5.722201,0.78557 0.660608,0.103329 1.497527,0.165958 1.481901,1.200698 -0.01476,1.004288 -0.702253,1.259447 -1.504949,1.320453 -0.683654,0.05124 -1.374015,0.01054 -2.061402,0.01054"
       style="fill:#462d7f;fill-opacity:1;fill-rule:nonzero;stroke:none;stroke-width:0.352778"
       id="path30220" />
    <path
       d="m 91.484926,49.134301 c -0.54158,2.565033 -0.99238,5.111446 -1.626946,7.611024 -1.027358,4.047648 -2.144718,8.074484 -3.289597,12.09088 -0.473877,1.661922 -1.079423,3.290357 -1.697622,4.906139 -0.378668,0.990899 -0.875593,1.001316 -1.512392,0.126525 -0.682916,-0.938833 -0.600337,-1.995187 -0.366752,-3.021808 0.479085,-2.101553 1.151585,-4.164452 1.531728,-6.28163 0.818319,-4.557986 2.543461,-8.842952 3.797699,-13.26853 0.230612,-0.813849 0.331052,-1.664874 0.492476,-2.498081 0.07444,-0.383854 0.05209,-0.834661 0.253682,-1.132985 0.2075,-0.307223 0.626381,-0.628595 0.967829,-0.645719 0.348155,-0.01687 0.868145,0.239554 1.037015,0.534884 0.26037,0.454539 0.28641,1.04446 0.41288,1.579343"
       style="fill:#462d7f;fill-opacity:1;fill-rule:nonzero;stroke:none;stroke-width:0.352778"
       id="path30224" />
    <path
       d="m 104.14425,74.537593 c -0.5066,-0.665793 -0.9604,-1.242344 -1.39261,-1.835239 -0.46198,-0.631589 -0.86815,-1.3078 -1.3636,-1.911133 -0.72085,-0.878566 -1.903684,-1.008738 -2.785224,-0.264077 -1.45065,1.226719 -3.14901,1.947571 -4.92327,2.504027 -1.47295,0.462721 -2.61189,-0.373459 -3.639982,-1.223747 -1.322688,-1.093551 -1.576348,-2.774072 -0.904608,-4.377223 1.06753,-2.549408 3.14827,-3.930845 5.57121,-4.921744 0.84284,-0.344442 1.70581,-0.676232 2.59106,-0.875593 1.27359,-0.286409 2.810534,0.435182 3.336484,1.530232 0.16132,0.336998 0.2507,1.030331 0.0945,1.131509 -0.3288,0.213489 -0.905354,0.301276 -1.266904,0.157734 -0.7878,-0.313929 -1.37625,-1.051146 -2.41994,-0.694072 -1.46776,0.501417 -2.95708,0.963379 -3.92566,2.245158 -0.69705,0.922449 -1.33534,1.931209 -1.76235,2.996503 -0.19336,0.4813 -0.002,1.484851 0.36379,1.728854 0.45675,0.305008 1.40377,0.305747 1.90963,0.02447 1.46848,-0.815325 2.92805,-1.716222 4.19123,-2.813485 1.21557,-1.054878 2.286054,-0.862962 3.191404,0.01687 1.0705,1.040728 2.11719,2.115702 3.07684,3.257608 0.83766,0.995368 0.85476,2.3255 0.058,3.323821"
       style="fill:#462d7f;fill-opacity:1;fill-rule:nonzero;stroke:none;stroke-width:0.352778"
       id="path30228" />
    <path
       d="m 60.553153,136.68311 c -2.00012,0 -3.485932,-1.62587 -3.485932,-3.68073 v -0.0206 c 0,-2.03392 1.456016,-3.70083 3.544682,-3.70083 1.281363,0 2.048419,0.44993 2.680248,1.1043 l -0.952158,1.15501 c -0.52398,-0.50064 -1.058433,-0.8073 -1.73854,-0.8073 -1.145359,0 -1.971165,1.00208 -1.971165,2.22871 v 0.0206 c 0,1.22745 0.805682,2.24963 1.971165,2.24963 0.777506,0 1.253186,-0.32676 1.786817,-0.83868 l 0.952182,1.01253 c -0.699454,0.78718 -1.476161,1.27816 -2.787299,1.27816"
       style="fill:#462d7f;fill-opacity:1;fill-rule:nonzero;stroke:none;stroke-width:0.352778"
       id="path30232" />
    <path
       d="m 67.197591,132.60366 c -0.981157,0 -1.583189,0.62378 -1.583189,1.93252 v 2.02425 h -1.476161 v -5.47961 h 1.476161 v 1.1035 c 0.301005,-0.75659 0.787157,-1.24758 1.661264,-1.20651 v 1.62585 z"
       style="fill:#462d7f;fill-opacity:1;fill-rule:nonzero;stroke:none;stroke-width:0.352778"
       id="path30236" />
    <path
       d="m 72.792312,134.36207 h -3.622757 c 0.145791,0.70507 0.612506,1.07372 1.272511,1.07372 0.495005,0 0.854782,-0.16336 1.26286,-0.56263 l 0.84431,0.78719 c -0.485354,0.63423 -1.184786,1.02299 -2.126494,1.02299 -1.563888,0 -2.719697,-1.15581 -2.719697,-2.83235 v -0.0206 c 0,-1.56467 1.059232,-2.85249 2.574019,-2.85249 1.73854,0 2.53455,1.42062 2.53455,2.97483 v 0.0206 c 0,0.15378 -0.0091,0.24629 -0.01825,0.38875 m -3.069002,-3.88516 -1.242736,-1.22662 1.271713,-0.58273 1.097857,1.80935 z m 0.553754,1.74822 c -0.611706,0 -1.010131,0.46037 -1.126833,1.16546 h 2.223871 c -0.08693,-0.69541 -0.475681,-1.16546 -1.097038,-1.16546"
       style="fill:#462d7f;fill-opacity:1;fill-rule:nonzero;stroke:none;stroke-width:0.352778"
       id="path30240" />
    <path
       d="m 76.124743,136.68311 c -1.563866,0 -2.709227,-1.26769 -2.709227,-2.83238 v -0.0206 c 0,-1.56468 1.135687,-2.85249 2.728551,-2.85249 0.981157,0 1.592863,0.34771 2.078194,0.91998 l -0.903059,1.02219 c -0.330004,-0.36782 -0.660007,-0.60285 -1.184785,-0.60285 -0.738081,0 -1.262063,0.68495 -1.262063,1.49224 v 0.0206 c 0,0.8387 0.514331,1.51317 1.320812,1.51317 0.495005,0 0.834659,-0.22541 1.194436,-0.58273 l 0.863635,0.91999 c -0.504656,0.58272 -1.087387,1.00207 -2.126494,1.00207"
       style="fill:#462d7f;fill-opacity:1;fill-rule:nonzero;stroke:none;stroke-width:0.352778"
       id="path30244" />
    <path
       d="m 82.263658,136.56028 v -3.05694 c 0,-0.73646 -0.330004,-1.11394 -0.893431,-1.11394 -0.563405,0 -0.923183,0.37748 -0.923183,1.11394 v 3.05694 h -1.475363 v -7.46365 h 1.475363 v 2.76074 c 0.340452,-0.46039 0.777506,-0.87892 1.525237,-0.87892 1.116362,0 1.767516,0.7767 1.767516,2.03393 v 3.5479 z"
       style="fill:#462d7f;fill-opacity:1;fill-rule:nonzero;stroke:none;stroke-width:0.352778"
       id="path30248" />
    <path
       d="m 89.616634,134.36207 h -3.622782 c 0.145791,0.70507 0.612528,1.07372 1.272534,1.07372 0.495803,0 0.854781,-0.16336 1.262836,-0.56263 l 0.84433,0.78719 c -0.485351,0.63423 -1.184783,1.02299 -2.126491,1.02299 -1.563887,0 -2.719696,-1.15581 -2.719696,-2.83235 v -0.0206 c 0,-1.56467 1.059231,-2.85249 2.574019,-2.85249 1.738539,0 2.534552,1.42062 2.534552,2.97483 v 0.0206 c 0,0.15378 -0.0091,0.24629 -0.01826,0.38875 m -2.515249,-2.13694 c -0.611728,0 -1.010132,0.46037 -1.126833,1.16546 h 2.22387 c -0.08693,-0.69541 -0.47568,-1.16546 -1.097037,-1.16546"
       style="fill:#462d7f;fill-opacity:1;fill-rule:nonzero;stroke:none;stroke-width:0.352778"
       id="path30252" />
    <path
       d="m 96.261146,136.66249 c -0.78636,0 -1.27252,-0.37829 -1.62182,-0.81775 v 2.35106 h -1.47617 v -7.11514 h 1.47617 v 0.78718 c 0.35895,-0.51191 0.85477,-0.88939 1.62182,-0.88939 1.21375,0 2.36956,1.00125 2.36956,2.83155 v 0.0206 c 0,1.82951 -1.13648,2.83157 -2.36956,2.83157 m 0.89342,-2.85248 c 0,-0.91032 -0.58275,-1.51317 -1.27253,-1.51317 -0.68896,0 -1.26204,0.60285 -1.26204,1.51317 v 0.0206 c 0,0.90951 0.57308,1.51317 1.26204,1.51317 0.68978,0 1.27253,-0.59318 1.27253,-1.51317 z"
       style="fill:#462d7f;fill-opacity:1;fill-rule:nonzero;stroke:none;stroke-width:0.352778"
       id="path30256" />
    <path
       d="m 102.52616,136.56028 v -0.59321 c -0.35896,0.41935 -0.85479,0.69542 -1.57354,0.69542 -0.980344,0 -1.786824,-0.59318 -1.786824,-1.67655 v -0.0206 c 0,-1.19606 0.864444,-1.74821 2.097534,-1.74821 0.52477,0 0.90387,0.0926 1.2725,0.22542 v -0.0926 c 0,-0.6439 -0.3783,-1.00126 -1.11638,-1.00126 -0.56341,0 -0.96181,0.11179 -1.437524,0.29619 l -0.36863,-1.1864 c 0.572284,-0.2656 1.136494,-0.43945 2.019454,-0.43945 1.61217,0 2.32127,0.87972 2.32127,2.36231 v 3.17927 z m 0.0299,-2.20779 c -0.25275,-0.12321 -0.58273,-0.20534 -0.94252,-0.20534 -0.63101,0 -1.0198,0.26642 -1.0198,0.75659 v 0.0206 c 0,0.41932 0.33001,0.66402 0.80651,0.66402 0.68899,0 1.15581,-0.39843 1.15581,-0.96103 z"
       style="fill:#462d7f;fill-opacity:1;fill-rule:nonzero;stroke:none;stroke-width:0.352778"
       id="path30260" />
    <path
       d="m 108.04379,132.60366 c -0.98116,0 -1.58322,0.62378 -1.58322,1.93252 v 2.02425 h -1.47613 v -5.47961 h 1.47613 v 1.1035 c 0.30102,-0.75659 0.78638,-1.24758 1.66129,-1.20651 v 1.62585 z"
       style="fill:#462d7f;fill-opacity:1;fill-rule:nonzero;stroke:none;stroke-width:0.352778"
       id="path30264" />
    <path
       d="m 113.49127,134.36207 h -3.62275 c 0.14579,0.70507 0.61251,1.07372 1.27251,1.07372 0.49581,0 0.85479,-0.16336 1.26286,-0.56263 l 0.84431,0.78719 c -0.48533,0.63423 -1.18478,1.02299 -2.1265,1.02299 -1.56386,0 -2.71967,-1.15581 -2.71967,-2.83235 v -0.0206 c 0,-1.56467 1.05921,-2.85249 2.574,-2.85249 1.73853,0 2.53457,1.42062 2.53457,2.97483 v 0.0206 c 0,0.15378 -0.009,0.24629 -0.0182,0.38875 m -2.51525,-2.13694 c -0.6117,0 -1.01011,0.46037 -1.12683,1.16546 h 2.22469 c -0.0878,-0.69541 -0.47647,-1.16546 -1.09786,-1.16546"
       style="fill:#462d7f;fill-opacity:1;fill-rule:nonzero;stroke:none;stroke-width:0.352778"
       id="path30268" />
    <path
       d="m 117.65912,136.56028 v -3.05694 c 0,-0.73646 -0.33001,-1.11394 -0.89343,-1.11394 -0.5634,0 -0.92239,0.37748 -0.92239,1.11394 v 3.05694 h -1.47616 v -5.47962 h 1.47616 v 0.77671 c 0.33965,-0.46039 0.77671,-0.87892 1.52444,-0.87892 1.11719,0 1.76752,0.7767 1.76752,2.03393 v 3.5479 z"
       style="fill:#462d7f;fill-opacity:1;fill-rule:nonzero;stroke:none;stroke-width:0.352778"
       id="path30272" />
    <path
       d="m 121.93302,136.65252 c -0.90308,0 -1.51479,-0.37831 -1.51479,-1.64598 v -2.59734 h -0.62137 v -1.32887 h 0.62137 v -1.40047 h 1.47615 v 1.40047 h 1.22423 v 1.32887 h -1.22423 v 2.3414 c 0,0.35815 0.14579,0.53121 0.4765,0.53121 0.27123,0 0.5143,-0.0717 0.72761,-0.19393 v 1.24757 c -0.31067,0.19392 -0.67049,0.31711 -1.16547,0.31711"
       style="fill:#462d7f;fill-opacity:1;fill-rule:nonzero;stroke:none;stroke-width:0.352778"
       id="path30276" />
    <path
       d="m 127.01317,136.56028 v -0.59321 c -0.35899,0.41935 -0.85479,0.69542 -1.57354,0.69542 -0.98034,0 -1.78681,-0.59318 -1.78681,-1.67655 v -0.0206 c 0,-1.19606 0.86443,-1.74821 2.09749,-1.74821 0.5248,0 0.90387,0.0926 1.27253,0.22542 v -0.0926 c 0,-0.6439 -0.3783,-1.00126 -1.11638,-1.00126 -0.56341,0 -0.96184,0.11179 -1.43752,0.29619 l -0.36863,-1.1864 c 0.57228,-0.2656 1.13569,-0.43945 2.01945,-0.43945 1.61217,0 2.32127,0.87972 2.32127,2.36231 v 3.17927 z m 0.0299,-2.20779 c -0.25275,-0.12321 -0.58275,-0.20534 -0.94252,-0.20534 -0.63101,0 -1.0198,0.26642 -1.0198,0.75659 v 0.0206 c 0,0.41932 0.33001,0.66402 0.80651,0.66402 0.68897,0 1.15581,-0.39843 1.15581,-0.96103 z"
       style="fill:#462d7f;fill-opacity:1;fill-rule:nonzero;stroke:none;stroke-width:0.352778"
       id="path30280" />
    <path
       d="m 129.54026,129.09656 h 1.47613 v 7.46364 h -1.47613 z"
       style="fill:#462d7f;fill-opacity:1;fill-rule:nonzero;stroke:none;stroke-width:0.352778"
       id="path30282" />
    <path
       d="m 136.99885,134.36207 h -3.62278 c 0.14578,0.70507 0.6117,1.07372 1.2725,1.07372 0.49501,0 0.85399,-0.16336 1.26206,-0.56263 l 0.84513,0.78719 c -0.48615,0.63423 -1.18478,1.02299 -2.12649,1.02299 -1.56389,0 -2.71969,-1.15581 -2.71969,-2.83235 v -0.0206 c 0,-1.56467 1.0584,-2.85249 2.57399,-2.85249 1.73774,0 2.53457,1.42062 2.53457,2.97483 v 0.0206 c 0,0.15378 -0.009,0.24629 -0.0182,0.38875 m -2.51526,-2.13694 c -0.61171,0 -1.01012,0.46037 -1.12682,1.16546 h 2.22387 c -0.0869,-0.69541 -0.47568,-1.16546 -1.09705,-1.16546"
       style="fill:#462d7f;fill-opacity:1;fill-rule:nonzero;stroke:none;stroke-width:0.352778"
       id="path30294" />
    <path
       d="m 102.60891,141.73711 c -0.76303,0.40888 -1.47374,0.92317 -2.04521,1.59044 -0.601224,0.70185 -0.651944,1.62665 -0.16084,2.40416 0.36621,0.58033 0.90146,0.9731 1.51476,1.22987 0.80972,0.33886 1.40614,0.22701 1.99209,-0.48453 0.64069,-0.77913 0.89019,-1.71199 0.94814,-2.76317 -0.0137,-0.45475 -0.0901,-0.95377 -0.38954,-1.3852 -0.59321,-0.85398 -0.97795,-1.06404 -1.85929,-0.59157 m 1.10751,2.3776 c -0.14419,0.56584 -0.30666,1.13005 -0.78314,1.52364 -0.26803,0.22062 -0.54732,0.48695 -0.92964,0.35012 -0.44511,-0.15948 -0.60849,-0.55939 -0.67609,-0.99001 -0.11112,-0.70185 0.42336,-1.3047 1.04634,-1.3353 0.0837,-0.004 0.16428,-0.0723 0.2463,-0.11179 -0.0114,-0.029 -0.0233,-0.0586 -0.0354,-0.0878 -0.16176,-0.0692 -0.32437,-0.13918 -0.52561,-0.22542 0.32116,-0.34529 0.67613,-0.56986 1.09866,-0.66644 0.19713,-0.0458 0.45155,0.17545 0.54573,0.40808 0.15218,0.37749 0.1086,0.759 0.0137,1.13486"
       style="fill:#ef373e;fill-opacity:1;fill-rule:nonzero;stroke:none;stroke-width:0.352778"
       id="path30298" />
    <path
       d="m 71.313755,141.89726 c -0.781545,-0.68576 -1.20573,-0.79683 -1.947006,-0.12479 -0.6423,0.58113 -1.207326,1.25159 -1.600916,2.03715 -0.413713,0.8266 -0.239858,1.73612 0.424984,2.37199 0.495803,0.47405 1.109928,0.72598 1.767516,0.8274 0.866851,0.13369 1.418985,-0.11909 1.814993,-0.95136 0.433837,-0.91114 0.450743,-1.87699 0.252728,-2.91046 -0.123204,-0.43785 -0.317911,-0.90387 -0.712299,-1.24997 m -0.690602,3.58252 c -0.206024,0.2785 -0.412892,0.60446 -0.816132,0.56422 -0.470867,-0.0468 -0.726012,-0.39601 -0.89585,-0.79763 -0.276866,-0.65357 0.09583,-1.36829 0.692199,-1.54777 0.08054,-0.0242 0.141683,-0.11112 0.211727,-0.16816 -0.01825,-0.0257 -0.03628,-0.0516 -0.05475,-0.0773 -0.173854,-0.0281 -0.348507,-0.0564 -0.565025,-0.091 0.228588,-0.41371 0.519166,-0.71635 0.9055,-0.91273 0.180242,-0.0917 0.480518,0.0611 0.627814,0.264 0.239037,0.32918 0.288935,0.7107 0.287337,1.09865 -0.0022,0.58354 -0.02487,1.17031 -0.392791,1.66771"
       style="fill:#ef373e;fill-opacity:1;fill-rule:nonzero;stroke:none;stroke-width:0.352778"
       id="path30302" />
    <path
       d="m 58.428097,141.44662 c 0.06593,0.0137 0.123887,7.5e-4 0.174766,-0.0418 0.413714,-0.22451 0.742895,-0.42499 1.431079,-0.99324 0.02487,-0.0206 0.07392,-0.0555 0.147159,-0.10311 0.16815,-0.10952 0.285741,-0.20352 0.353344,-0.28171 0.05475,-0.0669 0.09012,-0.13369 0.105407,-0.20192 0.01825,-0.079 0.0091,-0.15948 -0.02328,-0.24066 -0.02738,-0.0675 -0.05704,-0.1232 -0.08784,-0.16746 -0.05385,-0.0781 -0.1175,-0.12548 -0.189825,-0.14169 -0.07735,-0.0159 -0.199636,0.0137 -0.367032,0.091 l -0.01825,0.0114 c -0.612526,0.29055 -0.927221,0.45555 -1.387615,0.88777 l -0.02282,0.0228 c -0.227014,0.21172 -0.360576,0.3968 -0.400024,0.55537 l -0.0022,0.0137 c -0.03309,0.14739 0.0046,0.30103 0.115218,0.4604 0.04905,0.0725 0.107004,0.11681 0.172941,0.13118"
       style="fill:#ef373e;fill-opacity:1;fill-rule:nonzero;stroke:none;stroke-width:0.352778"
       id="path30306" />
    <path
       d="m 77.137773,142.74562 c -0.06913,-0.0474 -0.159252,-0.0717 -0.272052,-0.0717 h -0.05795 c -0.06845,0.007 -0.145791,0.0206 -0.229387,0.0436 -0.07963,0.0228 -0.136893,0.0346 -0.172257,0.0385 l -0.226101,0.0281 c -0.08693,0.0137 -0.180243,0.0242 -0.280084,0.0337 -0.06593,0.002 -0.135295,0.004 -0.206935,0.009 l -0.2833,0.0243 c -0.184349,0.0159 -0.369454,0.0331 -0.555377,0.0522 l -0.13849,0.0137 c -0.07894,0.007 -0.189825,0.0114 -0.33322,0.0114 h -0.149669 c -0.07164,-0.002 -0.135296,-0.004 -0.191651,-0.004 -0.05316,0 -0.100615,0.002 -0.141683,0.004 -0.07643,0 -0.145564,0.002 -0.206937,0.009 -0.273649,0.0228 -0.433837,0.20282 -0.482936,0.54168 -0.04836,0.14967 -0.07255,0.28572 -0.07255,0.40726 v 0.0474 c 0.0069,0.11179 0.03536,0.21241 0.08464,0.30183 0.04586,0.0764 0.105408,0.12 0.179559,0.12958 0.05886,0.009 0.119096,0.0137 0.180242,0.0137 0.03628,0 0.07233,-0.002 0.11111,-0.004 0.03536,-0.002 0.07324,-0.007 0.111112,-0.0137 0.07164,-0.0137 0.136893,-0.0228 0.195529,-0.029 l 0.360576,-0.0233 0.796833,-0.0675 c 0.08944,-0.009 0.177047,-0.0182 0.263997,-0.0242 0.255967,-0.0228 0.482936,-0.0337 0.682549,-0.0337 h 0.07255 c 0.07894,0.002 0.148072,0.004 0.206937,0.004 0.06114,0 0.111111,-0.002 0.149669,-0.004 0.111796,-0.009 0.287338,-0.0522 0.524779,-0.12868 0.143281,-0.0483 0.232604,-0.18823 0.268036,-0.42174 0.01141,-0.0507 0.01597,-0.10062 0.01597,-0.14808 0,-0.0182 -8.23e-4,-0.0379 -0.0046,-0.057 -0.0069,-0.36782 -0.07415,-0.59399 -0.198723,-0.68092"
       style="fill:#ef373e;fill-opacity:1;fill-rule:nonzero;stroke:none;stroke-width:0.352778"
       id="path30310" />
    <path
       d="m 82.264138,141.74942 h -0.0091 c -0.504656,0 -1.026217,0.29779 -1.566283,0.89501 -0.472463,0.52398 -0.774289,1.02704 -0.90468,1.50916 -0.05156,-0.79522 -0.252749,-1.30149 -0.603674,-1.51801 -0.07415,-0.0449 -0.147388,-0.0675 -0.220625,-0.0675 -0.06686,0 -0.132787,0.0206 -0.196442,0.0627 -0.134383,0.0958 -0.231806,0.27285 -0.292152,0.53121 0,0.63585 0.07324,1.28862 0.220626,1.95907 0.181838,0.8395 0.433812,1.40695 0.756584,1.70072 0.131189,0.11841 0.250308,0.17704 0.358978,0.17704 0.252727,0 0.445906,-0.31147 0.579514,-0.93444 0.185033,-0.84915 0.520739,-1.59207 1.006093,-2.22632 0.440271,-0.58191 0.99001,-1.03991 1.647576,-1.37553 0.01368,-0.0379 0.01825,-0.0748 0.01825,-0.11019 0,-0.14009 -0.08282,-0.27287 -0.24951,-0.39681 -0.185034,-0.13758 -0.367033,-0.20603 -0.545701,-0.20603"
       style="fill:#ef373e;fill-opacity:1;fill-rule:nonzero;stroke:none;stroke-width:0.352778"
       id="path30314" />
    <path
       d="m 88.98617,144.70428 c -0.118412,0 -0.293795,0.0862 -0.527196,0.25836 -0.130506,0.0997 -0.446728,0.4411 -0.948167,1.02542 -0.373443,0.44028 -0.74691,0.70267 -1.120377,0.78556 -0.08944,0.0182 -0.175451,0.0281 -0.259183,0.0281 -0.290555,0 -0.54732,-0.1207 -0.771072,-0.3638 -0.105407,-0.11521 -0.160849,-0.20602 -0.167465,-0.27287 v -0.009 c 0,-0.0538 0.03377,-0.099 0.100616,-0.13439 0.02897,-0.0114 0.115217,-0.0443 0.258362,-0.0958 0.127995,-0.0443 0.230208,-0.0926 0.306663,-0.14329 0.469245,-0.30666 0.704268,-0.7107 0.704268,-1.21214 0,-0.16905 -0.02738,-0.35092 -0.08122,-0.5457 -0.207621,-0.43142 -0.457975,-0.75498 -0.752569,-0.9723 -0.258362,-0.19165 -0.536049,-0.28734 -0.833038,-0.28734 -0.108602,0 -0.219029,0.0137 -0.330802,0.0379 -0.820171,0.18275 -1.27413,0.55777 -1.360259,1.12604 -0.04746,0.31631 -0.07164,0.60686 -0.07164,0.87166 0,0.62861 0.134383,1.12441 0.402419,1.48502 0.7888,1.06002 1.650814,1.58962 2.586089,1.58962 0.18914,0 0.378303,-0.0206 0.570661,-0.062 0.529615,-0.18502 1.051976,-0.56502 1.565484,-1.14051 0.527197,-0.59318 0.829023,-1.15983 0.905501,-1.6999 0,-0.17864 -0.05887,-0.26803 -0.177048,-0.26803 m -4.339117,0.65679 c -0.217203,-0.16017 -0.325964,-0.45396 -0.325964,-0.88134 0,-0.19165 0.03628,-0.34208 0.110199,-0.45074 0.07004,-0.10542 0.169062,-0.15766 0.296989,-0.15766 0.02282,0 0.04585,0.001 0.07164,0.004 0.198039,0.0257 0.347708,0.11842 0.449922,0.27849 0.07734,0.1175 0.115217,0.25355 0.115217,0.40729 0,0.0315 -0.0016,0.0636 -0.0046,0.0958 -0.01825,0.19483 -0.08944,0.35735 -0.210815,0.48775 -0.130504,0.14419 -0.29861,0.21652 -0.502238,0.21652"
       style="fill:#ef373e;fill-opacity:1;fill-rule:nonzero;stroke:none;stroke-width:0.352778"
       id="path30318" />
    <path
       d="m 93.040346,144.34476 c -1.36991,-0.50065 -2.12971,-0.77269 -2.28022,-0.81374 l -0.0379,-0.0338 c -0.0258,-0.0228 -0.0385,-0.0555 -0.0385,-0.10062 0,-0.10221 0.15057,-0.18982 0.45074,-0.26318 0.002,0 0.2809,-0.0443 0.83303,-0.13438 0.22702,-0.0539 0.38153,-0.14328 0.46443,-0.26801 0.0418,-0.0636 0.0627,-0.13278 0.0627,-0.20602 0,-0.0507 -0.0114,-0.10473 -0.0337,-0.16268 -0.0547,-0.128 -0.15378,-0.23504 -0.29701,-0.32115 -0.15286,-0.0926 -0.32115,-0.13849 -0.50303,-0.13849 h -0.086 c -0.50787,0 -1.01576,0.15606 -1.522837,0.46845 -0.543282,0.33643 -0.814535,0.73646 -0.814535,1.20249 0,0.0636 0.0045,0.12959 0.0137,0.19644 0,0.47007 0.461198,0.84593 1.384402,1.13005 1.23547,0.38314 1.88179,0.5747 1.93974,0.5747 -0.22702,0.23019 -0.52558,0.34529 -0.89582,0.34529 -0.34771,0 -0.75818,-0.10062 -1.23065,-0.30183 -0.10221,-0.0443 -0.194845,-0.0669 -0.278502,-0.0669 -0.156058,0 -0.27123,0.086 -0.344469,0.25837 -0.0452,0.10221 -0.06683,0.21401 -0.06683,0.33564 0,0.15948 0.03944,0.33724 0.119094,0.53201 0.08054,0.20374 0.329179,0.33484 0.747737,0.392 0.15606,0.0228 0.32354,0.0337 0.50303,0.0337 0.25193,0 0.52962,-0.0228 0.83306,-0.0669 0.51109,-0.0732 0.96426,-0.18982 1.36025,-0.35013 0.42498,-0.17226 0.68977,-0.36058 0.79523,-0.5642 0.0958,-0.19165 0.14328,-0.37105 0.14328,-0.53687 0,-0.18914 -0.062,-0.35978 -0.18664,-0.51271 -0.18822,-0.23341 -0.53283,-0.44266 -1.03426,-0.6278"
       style="fill:#ef373e;fill-opacity:1;fill-rule:nonzero;stroke:none;stroke-width:0.352778"
       id="path30322" />
    <path
       d="m 97.916126,142.23741 c -0.64791,-0.25515 -1.29505,-0.38313 -1.93975,-0.38313 h -0.13918 c -0.15947,0 -0.27446,0.0452 -0.34449,0.13438 -0.099,0.13119 -0.16266,0.39761 -0.19164,0.80006 -0.0452,0.29297 -0.0669,0.86201 -0.0669,1.70472 0,0.81453 0.0206,1.88584 0.062,3.21388 v 0.48858 c 0,0.53362 0.0182,0.93607 0.057,1.2065 0.0764,0.5111 0.23181,0.83707 0.46523,0.97711 0.23904,0.1442 0.45313,0.21561 0.64148,0.21561 0.1369,0 0.24228,-0.0411 0.31632,-0.12388 0.0669,-0.0773 0.10061,-0.18025 0.10061,-0.31149 0,-0.0354 -0.001,-0.0716 -0.004,-0.11019 -0.0764,-0.63587 -0.12001,-1.49788 -0.12959,-2.5861 l -0.004,-0.17316 c 0,-0.12389 -0.009,-0.27768 -0.0242,-0.45957 -0.007,-0.07 -0.009,-0.13051 -0.009,-0.18184 0,-0.0958 0.0115,-0.15857 0.0338,-0.18686 0.0385,-0.0547 0.16906,-0.10381 0.39277,-0.14899 0.57469,-0.1143 1.1067,-0.42498 1.59528,-0.92881 0.49822,-0.51756 0.74693,-1.00612 0.74693,-1.4657 0,-0.17225 -0.0354,-0.34047 -0.10541,-0.50225 -0.20442,-0.48937 -0.68815,-0.88134 -1.45119,-1.17915 m 0.13438,1.65807 c -0.0547,0.33803 -0.21082,0.62862 -0.47006,0.87087 -0.26159,0.23985 -0.55858,0.37104 -0.89021,0.39358 v -0.0675 c 0,-0.13439 -0.0137,-0.34933 -0.0385,-0.64633 -0.029,-0.32598 -0.0433,-0.59078 -0.0433,-0.79523 0,-0.26801 0.0242,-0.43705 0.0725,-0.50788 0.0733,-0.0322 0.16428,-0.0474 0.27285,-0.0474 0.099,0 0.21083,0.0137 0.33484,0.0379 0.29057,0.058 0.50466,0.16815 0.64229,0.32998 0.0862,0.0999 0.12891,0.21242 0.12891,0.34048 0,0.029 -0.002,0.0595 -0.009,0.0917"
       style="fill:#ef373e;fill-opacity:1;fill-rule:nonzero;stroke:none;stroke-width:0.352778"
       id="path30326" />
    <path
       d="m 109.99512,145.27455 c -0.0411,-0.23342 -0.0974,-0.58192 -0.16746,-1.04474 -0.18914,-1.29907 -0.41532,-2.25367 -0.6801,-2.86375 -0.0926,-0.19485 -0.24148,-0.29218 -0.44591,-0.29218 -0.16907,0 -0.36382,0.0669 -0.58436,0.20123 -0.16267,0.1013 -0.2809,0.19485 -0.35413,0.27769 -0.0958,0.11112 -0.22223,0.28896 -0.37831,0.53121 -0.16974,0.26241 -0.30667,0.44913 -0.41209,0.56101 -0.0159,-0.0997 -0.128,-0.17065 -0.33564,-0.2156 -0.086,-0.0182 -0.16587,-0.028 -0.23904,-0.028 -0.18503,0 -0.33806,0.057 -0.4596,0.17226 -0.17316,0.15605 -0.26077,0.40243 -0.26399,0.73647 -0.002,0.16976 -0.0379,0.48454 -0.10541,0.94412 -0.0764,0.52719 -0.11431,0.96424 -0.11431,1.31275 0,0.38313 0.0458,0.65759 0.13849,0.82341 0.15378,0.27203 0.32759,0.40725 0.52236,0.40725 0.22702,0 0.43867,-0.16907 0.63667,-0.50707 0.17225,-0.29459 0.26078,-0.55618 0.264,-0.78556 0.007,-0.53363 0.0894,-0.97874 0.24871,-1.33689 0.19485,-0.43463 0.53121,-0.82743 1.01093,-1.17835 0.0443,0.16655 0.10701,0.54973 0.18663,1.14937 0.11499,0.87812 0.21971,1.49626 0.31552,1.85362 0.16016,0.6069 0.37588,0.93447 0.64711,0.98195 0.099,0.0183 0.18823,0.029 0.26804,0.029 0.20442,0 0.35255,-0.0595 0.44511,-0.17706 0.058,-0.0764 0.0869,-0.19643 0.0869,-0.35977 0,-0.20124 -0.0433,-0.46361 -0.12959,-0.7896 -0.0547,-0.19164 -0.0878,-0.32597 -0.10061,-0.40241"
       style="fill:#ef373e;fill-opacity:1;fill-rule:nonzero;stroke:none;stroke-width:0.352778"
       id="path30330" />
    <path
       d="m 114.77997,144.34476 c -1.3699,-0.50065 -2.12972,-0.77269 -2.28024,-0.81374 l -0.0379,-0.0338 c -0.0257,-0.0228 -0.0385,-0.0555 -0.0385,-0.10062 0,-0.10221 0.15059,-0.18982 0.45074,-0.26318 0.002,0 0.2809,-0.0443 0.83304,-0.13438 0.22701,-0.0539 0.38152,-0.14328 0.46442,-0.26801 0.0418,-0.0636 0.0628,-0.13278 0.0628,-0.20602 0,-0.0507 -0.0114,-0.10473 -0.0338,-0.16268 -0.0547,-0.128 -0.15377,-0.23504 -0.29698,-0.32115 -0.15286,-0.0926 -0.32115,-0.13849 -0.50305,-0.13849 h -0.086 c -0.50789,0 -1.01497,0.15606 -1.52284,0.46845 -0.54327,0.33643 -0.81453,0.73646 -0.81453,1.20249 0,0.0636 0.004,0.12959 0.0137,0.19644 0,0.47007 0.46119,0.84593 1.3844,1.13005 1.23549,0.38314 1.8818,0.5747 1.93975,0.5747 -0.22702,0.23019 -0.52558,0.34529 -0.89582,0.34529 -0.34771,0 -0.75821,-0.10062 -1.23068,-0.30183 -0.10221,-0.0443 -0.19484,-0.0669 -0.27848,-0.0669 -0.15605,0 -0.27123,0.086 -0.34449,0.25837 -0.0452,0.10221 -0.0669,0.21401 -0.0669,0.33564 0,0.15948 0.0395,0.33724 0.1191,0.53201 0.0806,0.20374 0.32921,0.33484 0.74773,0.392 0.15607,0.0228 0.32357,0.0337 0.50306,0.0337 0.25193,0 0.52961,-0.0228 0.83304,-0.0669 0.51111,-0.0732 0.96425,-0.18982 1.36026,-0.35013 0.42499,-0.17226 0.68978,-0.36058 0.79522,-0.5642 0.0958,-0.19165 0.14328,-0.37105 0.14328,-0.53687 0,-0.18914 -0.062,-0.35978 -0.18686,-0.51271 -0.18824,-0.23341 -0.53284,-0.44266 -1.03428,-0.6278"
       style="fill:#ef373e;fill-opacity:1;fill-rule:nonzero;stroke:none;stroke-width:0.352778"
       id="path30334" />
    <path
       d="m 128.24794,142.6871 c -0.4282,-0.10222 -0.81294,-0.16496 -1.15419,-0.18754 -0.2318,-0.0159 -0.44349,-0.0114 -0.63425,0.0114 -0.62218,0.0701 -1.14535,0.33 -1.56872,0.77833 -0.0764,-0.43384 -0.0958,-0.93932 -0.0571,-1.51641 0.0249,-0.37507 0.0159,-0.20922 0.0901,-0.64632 0.009,-0.05 0.0653,-0.21013 0.16656,-0.4781 0.11591,-0.30584 0.19963,-0.5465 0.24951,-0.72277 0.0506,-0.17864 0.0806,-0.33401 0.0885,-0.46441 0.0228,-0.33162 -0.0876,-0.50467 -0.33,-0.52076 l -0.0573,-0.004 c -0.72357,-0.0483 -1.13327,0.38877 -1.34897,2.45811 -0.0257,0.24468 -0.0491,0.52156 -0.0701,0.83062 -0.0322,0.48133 -0.058,1.03911 -0.0781,1.67495 -0.0281,0.85239 -0.0507,1.40614 -0.0675,1.66049 l -0.009,0.1102 c -0.004,0.0418 -0.009,0.0806 -0.0114,0.1191 -0.0322,0.47809 0.1086,0.85075 0.42419,1.11798 0.24788,0.20922 0.5618,0.32596 0.94171,0.35093 0.10791,0.007 0.22131,0.007 0.34044,-7.5e-4 0.58516,-0.0369 1.1526,-0.22701 1.70393,-0.56824 0.52077,-0.32275 0.9546,-0.73888 1.30231,-1.24676 0.2833,-0.40324 0.47326,-0.90467 0.57146,-1.50272 0.0159,-0.0981 0.0265,-0.18982 0.0331,-0.27606 0.0369,-0.56101 -0.13757,-0.88618 -0.52557,-0.97632 m -0.98839,2.00737 c -0.14808,0.30102 -0.30425,0.51915 -0.46683,0.65597 -0.40406,0.34369 -1.02542,0.55375 -1.86571,0.62861 0.0564,-0.74853 0.28734,-1.31034 0.69379,-1.68623 0.33806,-0.32031 0.75821,-0.4636 1.26207,-0.42978 0.14647,0.009 0.3002,0.0346 0.46039,0.0742 0.0564,0.0675 0.0812,0.15766 0.0732,0.26882 -0.009,0.1337 -0.0611,0.29702 -0.15697,0.48856"
       style="fill:#ef373e;fill-opacity:1;fill-rule:nonzero;stroke:none;stroke-width:0.352778"
       id="path30338" />
    <path
       d="m 130.93962,139.01428 c -0.19324,-0.0274 -0.39601,0.0115 -0.60849,0.11431 l -0.0315,0.0137 -0.009,0.0346 c -0.25998,1.0906 -0.36382,1.47939 -0.5272,2.63195 l -0.0385,0.27285 c -0.0726,0.51112 -0.1248,1.01497 -0.15606,1.51237 -0.002,0.0758 -0.0137,0.23263 -0.0369,0.47007 -0.14077,1.48098 -0.0717,2.35184 0.20921,2.6102 0.12959,0.12229 0.25033,0.19165 0.36219,0.20694 0.11181,0.0159 0.21173,-0.0182 0.29861,-0.10381 0.1385,-0.1353 0.2286,-0.34691 0.26884,-0.63345 0.0206,-0.14328 0.0281,-0.30504 0.0232,-0.48533 -0.0296,-1.14616 0.0281,-2.23112 0.17386,-3.25492 0.0321,-0.22942 0.071,-0.45718 0.11339,-0.68256 0.009,-0.0418 0.0332,-0.15218 0.0723,-0.33241 0.12321,-0.55535 0.14968,-0.62215 0.20762,-1.02864 0.0644,-0.45476 0.0538,-0.96827 -0.0812,-1.1888 -0.0573,-0.091 -0.13689,-0.14328 -0.24065,-0.15766"
       style="fill:#ef373e;fill-opacity:1;fill-rule:nonzero;stroke:none;stroke-width:0.352778"
       id="path30342" />
    <path
       d="m 137.46679,145.21603 c -0.1086,-0.0458 -0.30425,-0.0337 -0.58595,0.0354 -0.15948,0.0411 -0.58273,0.23342 -1.27012,0.57951 -0.5151,0.26158 -0.96101,0.35978 -1.33769,0.29138 -0.0894,-0.0159 -0.17316,-0.0411 -0.24951,-0.0733 -0.26804,-0.11179 -0.45879,-0.32274 -0.57066,-0.63342 -0.0532,-0.14648 -0.0692,-0.25273 -0.0491,-0.31632 l 0.002,-0.009 c 0.0206,-0.05 0.0692,-0.0773 0.14488,-0.0844 0.0315,0 0.1232,0.002 0.27527,0.0114 0.13529,0.009 0.24788,0.004 0.33805,-0.0137 0.55134,-0.1013 0.92399,-0.38312 1.11796,-0.84593 0.0653,-0.15606 0.1102,-0.33402 0.13529,-0.53523 -0.0248,-0.4781 -0.13118,-0.87331 -0.31793,-1.1872 -0.16495,-0.27689 -0.38391,-0.47246 -0.65758,-0.58678 -0.10063,-0.0427 -0.20695,-0.0725 -0.31954,-0.0926 -0.82823,-0.14808 -1.39083,0.0228 -1.69024,0.51353 -0.16586,0.27285 -0.30022,0.53201 -0.40243,0.77588 -0.24308,0.58034 -0.30989,1.08901 -0.20193,1.52526 0.31794,1.28216 0.90873,2.10396 1.77156,2.46536 0.17385,0.0733 0.35736,0.12708 0.54972,0.16335 0.561,0.0332 1.18962,-0.1159 1.88503,-0.4475 0.71554,-0.34449 1.21294,-0.75097 1.49225,-1.2194 0.0684,-0.16427 0.0483,-0.26963 -0.0605,-0.31551 m -4.2563,-1.06965 c -0.13918,-0.23181 -0.12549,-0.5441 0.0394,-0.93849 0.0742,-0.17705 0.16588,-0.30183 0.27607,-0.37347 0.10473,-0.07 0.21652,-0.0806 0.33484,-0.0306 0.0206,0.009 0.0418,0.0182 0.0644,0.0315 0.17226,0.10061 0.27527,0.24387 0.30747,0.43062 0.0257,0.13849 0.009,0.27848 -0.0507,0.41935 -0.0114,0.0296 -0.0265,0.0586 -0.0418,0.0869 -0.0926,0.17225 -0.21971,0.29539 -0.38231,0.36942 -0.17637,0.0821 -0.35898,0.0837 -0.54732,0.004"
       style="fill:#ef373e;fill-opacity:1;fill-rule:nonzero;stroke:none;stroke-width:0.352778"
       id="path30346" />
    <path
       d="m 66.843449,145.97777 c -0.158567,0.0137 -0.317934,0.0242 -0.446704,0.0332 l -0.147388,0.009 c -0.60769,0.062 -1.320013,-0.0844 -1.655651,-0.33405 -0.276067,-0.20534 -0.516725,-0.67689 -0.404838,-0.93446 0.174539,-0.3976 0.395187,-0.85477 0.705066,-1.22904 0.315516,-0.38152 0.787979,-0.59884 1.366694,-0.62701 0.07324,-0.005 0.321128,-0.029 0.444285,-0.19393 0.09902,-0.13371 0.131189,-0.30747 0.09012,-0.48856 -0.04677,-0.20694 -0.185946,-0.39438 -0.362994,-0.48936 -0.688982,-0.36462 -1.286997,-0.0532 -1.732105,0.25915 -0.75015,0.5264 -1.338516,1.19445 -1.747392,1.98725 -0.266416,0.51673 -0.253548,1.13006 0.0016,1.64276 -0.122291,0.0555 -0.245495,0.11021 -0.367033,0.16747 -0.278486,0.1296 -0.565824,0.264 -0.853185,0.38232 -0.419325,0.17477 -0.834658,0.31712 -1.235481,0.42578 -0.227698,0.0644 -0.429798,-0.0257 -0.550538,-0.24148 -0.247091,-0.44348 -0.190053,-0.66966 0.241457,-0.96745 0.50064,-0.3461 1.044743,-0.79361 1.287021,-1.48984 0.296191,-0.85396 0.109514,-1.46569 -0.540088,-1.76751 -0.210815,-0.0981 -0.447502,-0.1321 -0.676889,-0.16428 -0.09971,-0.0159 -0.199636,-0.029 -0.295393,-0.0483 l -0.01597,-0.004 -0.01597,0.007 c -0.09012,0.0369 -0.178645,0.0675 -0.263998,0.0974 -0.17796,0.0611 -0.346087,0.1191 -0.483732,0.22222 -0.552136,0.41452 -0.89341,1.0214 -1.015747,1.80535 -0.104723,0.67048 -0.08944,1.28298 0.04677,1.87214 0.239837,1.03427 0.944128,1.63312 1.881,1.63312 0.127083,0 0.258363,-0.0114 0.39359,-0.0332 0.606869,-0.10129 1.188001,-0.39036 1.74981,-0.66965 l 0.03856,-0.0182 c 0.373467,-0.18595 0.710703,-0.45154 1.03669,-0.7099 0.0022,0.004 0.0069,0.009 0.0091,0.0114 0.515926,0.49902 1.097059,0.80247 1.777165,0.92803 0.334841,0.062 0.660007,0.0926 0.980359,0.0926 0.30988,0 0.61652,-0.029 0.921586,-0.086 0.339653,-0.0636 0.544902,-0.35013 0.488548,-0.68093 -0.02327,-0.1353 -0.132787,-0.44348 -0.647915,-0.39923 m -7.33326,-2.02508 c -0.0091,-0.21651 0.02328,-0.6286 0.327585,-0.96826 0.18435,-0.20443 0.642301,-0.17476 0.907098,0.0605 0.09491,0.0844 0.149669,0.20033 0.154461,0.32597 0.0046,0.14008 -0.05157,0.2801 -0.161762,0.39439 -0.231806,0.24065 -0.476502,0.45476 -0.72681,0.63504 -0.127082,0.0917 -0.229387,0.12161 -0.305066,0.0853 -0.07483,-0.0354 -0.169747,-0.15606 -0.195528,-0.53283"
       style="fill:#ef373e;fill-opacity:1;fill-rule:nonzero;stroke:none;stroke-width:0.352778"
       id="path30350" />
    <path
       d="m 122.73926,145.99073 c -0.11682,-0.16336 -0.19485,-0.28734 -0.23098,-0.36862 -0.0837,-0.18823 -0.16815,-0.50387 -0.25194,-0.9369 -0.0267,-0.1401 -0.0427,-0.21743 -0.0516,-0.24871 -0.007,-0.0321 -0.0206,-0.1207 -0.0468,-0.35737 -0.0684,-0.55617 -0.14328,-0.97068 -0.2213,-1.23066 -0.0258,-0.0876 -0.0555,-0.16017 -0.0821,-0.22382 -0.004,-0.12001 -0.0332,-0.25677 -0.0733,-0.34128 -0.24066,-0.51188 -0.92884,-0.83062 -1.49868,-0.70185 -0.40406,0.0926 -0.80166,0.25194 -1.14214,0.39439 -1.29505,0.54009 -2.05486,1.22504 -2.46373,2.22307 -0.31552,0.76868 -0.16428,1.51479 0.40566,1.99531 0.48695,0.4113 0.97711,0.76143 1.62665,0.55455 0.95058,-0.30424 1.62104,-0.65195 2.17317,-1.12843 l 0.004,-0.004 0.0822,-0.24388 c 0.10152,0.17455 0.20442,0.43222 0.30584,0.76865 0.17316,0.5578 0.36623,0.93932 0.5755,1.13329 0.1054,0.10062 0.23824,0.15127 0.39518,0.15127 0.18686,0 0.36624,-0.0627 0.53283,-0.18754 0.17135,-0.1248 0.27367,-0.27043 0.30265,-0.43947 0,-0.21241 -0.11498,-0.48453 -0.3429,-0.80728 z m -2.06371,-2.91688 c -0.11111,0.34932 -0.20853,0.73403 -0.0684,1.25883 l -0.0114,0.007 c -0.0315,0.0233 -0.0644,0.0474 -0.0974,0.0773 -0.60286,0.53364 -1.29828,0.95299 -1.83592,1.25723 -0.22062,0.12481 -0.62058,0.11818 -0.80892,-0.009 -0.14648,-0.0997 -0.2326,-0.52879 -0.14967,-0.74048 0.16655,-0.42336 0.41853,-0.86041 0.77107,-1.33771 0.40083,-0.54168 1.02301,-0.75821 1.62423,-0.96667 l 0.0869,-0.0306 c 0.0828,-0.028 0.15857,-0.0411 0.22859,-0.0411 0.13278,0 0.2447,0.0443 0.34771,0.0974 -0.004,0.14008 -0.0354,0.26482 -0.0878,0.4282"
       style="fill:#ef373e;fill-opacity:1;fill-rule:nonzero;stroke:none;stroke-width:0.352778"
       id="path30354" />
  </g>
</svg>
