<?xml version="1.0" encoding="UTF-8" standalone="no"?>
<svg
   xmlns:dc="http://purl.org/dc/elements/1.1/"
   xmlns:cc="http://creativecommons.org/ns#"
   xmlns:rdf="http://www.w3.org/1999/02/22-rdf-syntax-ns#"
   xmlns:svg="http://www.w3.org/2000/svg"
   xmlns="http://www.w3.org/2000/svg"
   xmlns:sodipodi="http://sodipodi.sourceforge.net/DTD/sodipodi-0.dtd"
   xmlns:inkscape="http://www.inkscape.org/namespaces/inkscape"
   width="171.71764mm"
   height="140.16599mm"
   viewBox="0 0 171.71764 140.16599"
   version="1.1"
   id="svg34347"
   inkscape:version="1.0.2 (e86c870879, 2021-01-15)"
   sodipodi:docname="logo-cool-douche.svg"
   inkscape:export-filename="/home/elise/Documents/cool-douche/logo-cool-douche.png"
   inkscape:export-xdpi="150"
   inkscape:export-ydpi="150">
  <defs
     id="defs34341">
    <inkscape:path-effect
       effect="spiro"
       id="path-effect1432"
       is_visible="true"
       lpeversion="1" />
    <inkscape:path-effect
       effect="simplify"
       id="path-effect1430"
       is_visible="true"
       lpeversion="1"
       steps="1"
       threshold="0.00275"
       smooth_angles="360"
       helper_size="0"
       simplify_individual_paths="false"
       simplify_just_coalesce="false" />
    <inkscape:path-effect
       effect="spiro"
       id="path-effect67"
       is_visible="true"
       lpeversion="1" />
    <inkscape:path-effect
       effect="simplify"
       id="path-effect65"
       is_visible="true"
       lpeversion="1"
       steps="1"
       threshold="0.00275"
       smooth_angles="360"
       helper_size="0"
       simplify_individual_paths="false"
       simplify_just_coalesce="false" />
    <inkscape:path-effect
       effect="simplify"
       id="path-effect59"
       is_visible="true"
       lpeversion="1"
       steps="1"
       threshold="0.00275"
       smooth_angles="360"
       helper_size="0"
       simplify_individual_paths="false"
       simplify_just_coalesce="false" />
  </defs>
  <sodipodi:namedview
     id="base"
     pagecolor="#ffffff"
     bordercolor="#666666"
     borderopacity="1.0"
     inkscape:pageopacity="0.0"
     inkscape:pageshadow="2"
     inkscape:zoom="0.54484937"
     inkscape:cx="126.72153"
     inkscape:cy="59.415858"
     inkscape:document-units="mm"
     inkscape:current-layer="layer1"
     inkscape:document-rotation="0"
     showgrid="false"
     fit-margin-top="0"
     fit-margin-left="0"
     fit-margin-right="0"
     fit-margin-bottom="0"
     inkscape:window-width="1920"
     inkscape:window-height="1088"
     inkscape:window-x="0"
     inkscape:window-y="0"
     inkscape:window-maximized="1" />
  <metadata
     id="metadata34344">
    <rdf:RDF>
      <cc:Work
         rdf:about="">
        <dc:format>image/svg+xml</dc:format>
        <dc:type
           rdf:resource="http://purl.org/dc/dcmitype/StillImage" />
        <dc:title></dc:title>
      </cc:Work>
    </rdf:RDF>
  </metadata>
  <g
     inkscape:label="Layer 1"
     inkscape:groupmode="layer"
     id="layer1"
     transform="translate(-22.219568,-23.908722)">
    <path
       d="m 35.858253,102.44106 c 3.97105,-0.002 5.622107,-0.88072 6.494817,-4.397478 0.553667,-2.229548 1.461203,-4.368649 2.114249,-6.576331 1.386648,-4.686733 2.964136,-9.335681 3.110231,-14.294767 0.03071,-1.03774 -0.02987,-2.113235 0.226539,-3.099299 0.430395,-1.652043 2.720579,-2.574456 4.197674,-1.740489 0.365787,0.206816 0.720641,0.826022 0.707736,1.244499 -0.06847,2.126168 -0.300192,4.246362 -0.398612,6.371544 -0.342936,7.354621 -2.685781,14.311673 -4.136052,21.448601 -1.015846,5.00082 -1.442297,10.12293 -0.88167,15.27585 0.331017,3.03666 0.387652,6.10217 0.623235,9.1498 0.0665,0.8618 0.295233,1.71662 0.509938,2.55955 0.666965,2.6192 1.401526,5.22248 2.012842,7.85461 0.109325,0.47117 -0.0865,1.33494 -0.414504,1.51088 -0.506923,0.27331 -1.369714,0.34493 -1.869706,0.0896 -1.440324,-0.73656 -2.553605,-1.75539 -3.235475,-3.40146 -1.516852,-3.66292 -2.460172,-7.43417 -3.064529,-11.33264 -0.264295,-1.70273 -0.589423,-1.6262 -2.228533,-1.07453 -2.340901,0.78626 -3.667872,2.74844 -5.00879,4.44619 -2.371698,3.00288 -7.43515,3.14503 -10.24023,0.84588 -0.782263,-0.64112 -1.377688,-1.74843 -1.635136,-2.75039 -1.094402,-4.26329 -0.486072,-8.32876 1.974099,-12.0185 1.494987,-2.24147 3.002879,-4.49688 4.742382,-6.54351 1.01686,-1.19679 2.439293,-2.10134 3.804048,-2.92933 0.726615,-0.44035 1.72161,-0.43936 2.595334,-0.63814 m -7.805895,18.53814 c 0.05663,0.0225 0.113269,0.0448 0.171031,0.0676 0.09749,0.64809 0.152153,1.30513 0.300192,1.9413 0.403571,1.74446 1.330972,2.03671 2.654984,0.87271 2.393563,-2.10529 4.664839,-4.31297 6.15884,-7.18565 1.263377,-2.42833 2.647038,-4.806 3.734453,-7.31089 0.865778,-1.99396 -0.625208,-3.74141 -2.779214,-3.31003 -1.001955,0.19977 -2.008898,0.83 -2.808067,1.50691 -2.553605,2.16296 -4.422325,4.88157 -5.69066,7.959 -0.724642,1.76038 -1.169943,3.63505 -1.741503,5.45905"
       style="fill:#462d7f;fill-opacity:1;fill-rule:nonzero;stroke:none;stroke-width:0.352778"
       id="path30184" />
    <path
       d="m 165.15431,109.74885 c -0.44927,3.34184 -0.95025,6.4501 -1.25842,9.57622 -0.20766,2.1083 -0.42044,4.28218 -0.13412,6.35765 0.41549,3.01184 1.3101,5.95507 1.93533,8.94206 0.184,0.87868 0.30614,1.82696 0.17695,2.70269 -0.19695,1.33195 -1.23951,1.72857 -2.30509,0.88567 -0.77133,-0.61132 -1.58343,-1.34788 -1.99097,-2.21067 -1.31906,-2.79415 -2.4741,-5.66482 -3.66489,-8.51761 -1.01489,-2.43134 -0.54076,-4.88453 -0.12623,-7.36059 0.43936,-2.62518 0.72363,-5.27619 1.05862,-7.91824 0.0496,-0.38866 0.0225,-0.78925 -0.002,-1.18186 -0.12314,-1.95023 -0.49802,-2.11228 -2.30709,-1.35881 -2.64208,1.10035 -3.81698,3.47205 -5.16782,5.70061 -1.1292,1.86376 -2.1719,3.77919 -3.31998,5.63104 -0.53775,0.86676 -1.23852,1.61324 -2.44625,1.42936 -1.34489,-0.20569 -2.6172,-0.56359 -3.15895,-1.98106 -0.48604,-1.27431 -0.78922,-2.55656 -0.21977,-3.94817 1.13615,-2.77924 2.20768,-5.58531 3.2315,-8.40727 0.67691,-1.86674 1.22263,-3.78119 1.83293,-5.67279 0.46818,-1.45422 0.96817,-2.899503 1.41249,-4.361664 0.9791,-3.216598 1.94626,-6.436182 2.88958,-9.663711 0.67294,-2.30013 1.25143,-4.629084 1.95618,-6.919267 0.70974,-2.305089 2.23949,-3.784156 4.67879,-4.192687 1.4095,-0.235555 2.04465,0.204843 1.7892,1.563569 -0.57753,3.072446 -1.17391,6.161827 -2.08244,9.1478 -1.32899,4.370621 -3.33389,8.537498 -3.82492,13.15664 -0.21274,2.00985 -0.0578,2.19872 1.91445,2.08838 1.68681,-0.0955 3.40546,-0.36976 5.05748,-0.15807 1.55861,0.2009 2.76532,1.2246 3.16292,2.9164 0.30715,1.30812 0.63416,2.61126 0.91249,3.75435"
       style="fill:#462d7f;fill-opacity:1;fill-rule:nonzero;stroke:none;stroke-width:0.352778"
       id="path30188" />
    <path
       d="m 65.994562,101.45271 c 2.517793,-0.17498 5.042574,-0.54769 7.550448,-0.46024 1.876666,0.0657 3.792102,0.55069 5.578349,1.17195 1.608287,0.55961 2.249415,2.21165 2.619175,3.72352 1.064591,4.34678 0.653074,8.5027 -2.122196,12.21331 -0.888632,1.18784 -1.735532,2.40749 -2.673865,3.55356 -2.163952,2.64008 -5.013748,4.48694 -7.914234,6.12309 -1.811099,1.02182 -4.001875,1.655 -6.082313,1.85877 -4.160903,0.40853 -6.617074,-1.90549 -8.966907,-6.13996 -1.429364,-2.57646 -2.199737,-5.31296 -2.738471,-8.14585 -0.463221,-2.4363 0.183993,-4.77222 1.434351,-6.78607 3.03269,-4.88253 7.456001,-7.39934 13.315663,-7.11208 m 5.576349,5.69365 c -2.258372,-0.3976 -4.653936,0.662 -7.133972,1.34091 -4.133065,1.13019 -7.094186,3.28716 -7.964924,7.80987 -0.55764,2.9015 1.173917,5.36565 2.688768,5.80796 2.37367,0.69481 4.760273,0.60833 7.082268,-0.26627 2.821986,-1.06357 5.027668,-2.99394 7.174714,-5.05252 1.854801,-1.77827 3.196705,-3.80306 3.846793,-6.27515 0.499991,-1.9025 -0.56956,-3.30606 -2.526753,-3.36072 -0.919455,-0.0254 -1.839895,-0.003 -3.166894,-0.003"
       style="fill:#462d7f;fill-opacity:1;fill-rule:nonzero;stroke:none;stroke-width:0.352778"
       id="path30192" />
    <path
       d="m 106.4642,84.112037 c -0.36182,1.548635 -0.76838,4.530664 -1.80313,7.276094 -0.65705,1.744462 -2.07052,3.324936 -3.46012,4.647962 -2.170917,2.064546 -4.996845,1.634122 -7.606098,1.141119 -3.282221,-0.620277 -6.368586,-1.887626 -8.929151,-4.120161 -2.502887,-2.182831 -3.435275,-5.109182 -3.529694,-8.321778 -0.09439,-3.202678 0.767358,-6.065407 2.864729,-8.620985 1.654015,-2.015857 2.966081,-4.310999 4.455123,-6.465992 1.367742,-1.980073 3.47999,-2.972082 5.63797,-3.580412 2.636105,-0.74352 4.852724,0.627209 6.806921,2.272292 4.21757,3.5486 5.4233,9.405248 5.56345,15.771861 m -5.67379,-3.832901 c -0.26739,-3.121163 -0.49201,-5.695619 -2.167887,-7.853598 -1.241515,-1.59738 -2.800124,-2.818013 -4.891494,-2.393563 -2.644052,0.534761 -4.019768,2.618186 -5.011777,4.944153 -0.291232,0.681899 -0.03776,1.072537 0.790237,1.051658 0.691817,-0.01691 1.415473,-0.0028 2.07052,0.185965 0.392611,0.114397 0.678884,0.592439 1.013874,0.90655 -0.393626,0.173003 -0.772345,0.447301 -1.180876,0.500977 -1.770327,0.231611 -3.208652,0.9254 -4.225512,2.47705 -1.003928,1.530771 -0.782292,3.166894 -0.649073,4.820909 0.300192,3.727521 2.37367,6.20257 5.625065,7.751233 1.879652,0.893617 5.02964,-0.69779 6.377516,-2.945229 1.857787,-3.097299 2.124167,-6.510709 2.249407,-9.44602"
       style="fill:#ef373e;fill-opacity:1;fill-rule:nonzero;stroke:none;stroke-width:0.352778"
       id="path30196" />
    <path
       d="m 84.806668,111.9108 c 0.535747,-1.67489 0.952252,-3.40146 1.650042,-5.00679 0.455247,-1.04766 3.91836,-2.18582 4.907383,-1.6421 0.508923,0.28036 0.93636,1.13416 0.98009,1.75743 0.18202,2.53171 -0.01409,5.10419 0.338963,7.60412 0.339949,2.39754 1.07651,4.76027 1.853814,7.06635 0.465193,1.38166 2.079451,1.83493 3.845803,1.22861 3.908417,-1.33994 6.723417,-4.0138 8.665697,-7.58328 1.52184,-2.79812 2.84585,-5.70258 4.313,-8.53152 1.15005,-2.21563 2.86273,-2.44127 4.62807,-0.68387 1.94824,1.93733 2.09337,3.45714 0.44034,5.63202 -2.69276,3.54263 -5.35668,7.11011 -8.16176,10.56229 -1.97607,2.4323 -4.51674,4.06448 -7.5057,5.22546 -2.486007,0.96618 -4.955114,1.09739 -7.313879,0.4672 -2.83489,-0.75645 -5.162858,-2.53571 -6.287071,-5.47497 -1.294202,-3.38261 -1.904504,-6.89244 -1.980073,-10.50464 -0.125104,-0.0389 -0.249362,-0.0775 -0.374719,-0.11637"
       style="fill:#ef373e;fill-opacity:1;fill-rule:nonzero;stroke:none;stroke-width:0.352778"
       id="path30200" />
    <path
       d="m 179.00913,101.11524 c 1.41545,0.42744 3.0516,0.61628 4.35473,1.3747 3.30406,1.92141 2.93528,5.21555 1.63911,8.07431 -1.327,2.92733 -3.79013,4.71654 -6.47991,6.2284 -2.22856,1.25343 -2.66493,2.41743 -1.64508,4.72351 0.53377,1.20671 1.58047,1.71169 2.74047,1.50989 2.00391,-0.3479 3.9939,-0.84887 5.93717,-1.45422 2.47111,-0.76935 4.88355,-1.72958 7.34372,-2.54067 0.29222,-0.0964 1.04867,0.28427 1.03774,0.34294 -0.10848,0.58843 -0.1561,1.42637 -0.55268,1.68284 -1.85779,1.20372 -3.72454,2.49195 -5.76919,3.28518 -2.74444,1.06456 -5.6181,2.2017 -8.50171,2.41342 -5.09228,0.37176 -8.8198,-2.67287 -9.56927,-8.14584 -0.40058,-2.9343 -0.12425,-5.81292 0.57354,-8.59118 0.79719,-3.16886 2.46611,-5.98589 5.35471,-7.76515 0.95721,-0.58945 2.19573,-0.72363 3.53665,-1.13813 m -3.16292,9.00368 c -0.0676,2.77028 0.91647,3.48498 2.53273,2.52875 1.29817,-0.76739 2.53272,-1.67588 3.67483,-2.66194 1.24348,-1.07254 1.32401,-2.69376 0.35981,-3.72155 -1.22559,-1.30513 -3.481,-1.66994 -4.55351,-0.67593 -1.54768,1.43436 -1.95224,3.33289 -2.01386,4.53067"
       style="fill:#462d7f;fill-opacity:1;fill-rule:nonzero;stroke:none;stroke-width:0.352778"
       id="path30204" />
    <path
       d="m 130.26917,79.340916 c -0.26035,4.727476 -1.38265,8.924164 -4.26626,12.429992 -2.6341,3.201692 -5.31791,3.70467 -8.95994,2.179845 -2.75837,-1.156025 -5.16483,-2.923337 -6.81389,-5.531604 -2.21067,-3.497912 -1.98205,-7.657801 0.72363,-10.816749 2.57051,-3.000906 5.76721,-5.312954 9.20049,-7.15285 3.96507,-2.125181 5.69663,-1.180875 8.36356,2.66293 1.34486,1.938316 1.6878,4.182768 1.75241,6.228436 m -10.17858,-1.452243 c 0.0578,0.143136 0.1144,0.286273 0.17103,0.429409 -0.40058,0.18991 -0.79421,0.52583 -1.20274,0.545694 -3.03669,0.148208 -5.64496,3.092367 -5.10521,6.515695 0.332,2.102331 1.12819,4.056538 3.30209,4.833842 1.86474,0.666965 3.22752,-0.632195 4.53364,-1.710678 2.32893,-1.921409 3.12215,-4.673799 3.82392,-7.435149 0.46621,-1.833922 0.6819,-3.698669 -0.0626,-5.540564 -0.45925,-1.13616 -1.70076,-2.214643 -2.66395,-1.991992 -2.06156,0.474153 -3.79509,1.566555 -5.36263,3.255368 0.98305,0.420449 1.77529,0.759412 2.56651,1.098375"
       style="fill:#ef373e;fill-opacity:1;fill-rule:nonzero;stroke:none;stroke-width:0.352778"
       id="path30208" />
    <path
       d="m 137.15761,125.41147 c 0.81906,0 2.12718,0.0169 3.4333,-0.003 1.42241,-0.0225 2.16691,0.43535 2.26235,1.43731 0.11439,1.19778 -0.64612,2.21267 -1.95224,2.36674 -3.5466,0.41946 -7.02462,0.11637 -10.50063,-0.81013 -3.73347,-0.995 -6.73934,-2.99195 -9.23529,-5.8507 -2.75338,-3.15397 -3.21062,-7.79595 -1.11128,-11.32666 2.62813,-4.42033 6.16478,-7.93413 10.46485,-10.58415 2.63112,-1.620236 5.6032,-2.834895 8.74324,-0.814079 1.22165,0.786239 1.79817,2.800089 0.87573,3.903459 -0.31014,0.36976 -1.08048,0.50892 -1.63415,0.49697 -3.54559,-0.0806 -6.77213,1.0318 -9.115,3.54959 -1.95618,2.10233 -3.4621,4.70961 -4.78414,7.28903 -1.09339,2.13414 0.37376,5.67874 2.25341,7.33971 2.2524,1.99101 6.7801,3.09831 10.29985,3.00688"
       style="fill:#462d7f;fill-opacity:1;fill-rule:nonzero;stroke:none;stroke-width:0.352778"
       id="path30212" />
    <path
       d="m 134.00464,88.996766 c 0.4145,-2.222616 0.71072,-4.476001 1.26636,-6.662804 1.6242,-6.392452 3.36173,-12.756051 5.03561,-19.136555 0.7644,-2.913419 1.55165,-5.822864 2.18881,-8.765135 0.30216,-1.394566 0.23048,-2.867689 0.42047,-4.29308 0.0983,-0.738561 0.12539,-1.601353 1.30511,-1.615272 1.21965,-0.01409 2.24744,0.285287 2.57448,1.526798 0.2395,0.909508 0.34193,1.928369 0.19865,2.850811 -0.41451,2.670875 -0.94132,5.327859 -1.50093,7.973883 -1.12819,5.331833 -2.21366,10.674598 -3.49394,15.969661 -1.08742,4.495865 -2.39255,8.939069 -3.67483,13.385231 -0.24852,0.858818 -0.78029,1.659002 -1.30412,2.399536 -0.13525,0.189909 -0.80019,0.187937 -1.11131,0.04086 -1.54368,-0.729602 -1.86971,-2.076465 -1.9045,-3.673817"
       style="fill:#462d7f;fill-opacity:1;fill-rule:nonzero;stroke:none;stroke-width:0.352778"
       id="path30216" />
    <path
       d="m 75.784983,93.217995 c -3.950172,-0.03578 -7.845653,-0.61729 -11.488673,-2.10233 -4.647961,-1.895572 -6.154867,-6.077326 -4.020753,-10.640787 1.750435,-3.746399 4.118159,-7.106133 7.410298,-9.632886 1.485041,-1.138132 3.415382,-1.919437 5.307967,-0.768372 0.689845,0.419463 1.271322,1.293187 1.525784,2.081452 0.297234,0.923427 -0.671924,1.133145 -1.345877,1.451229 -2.75935,1.304148 -5.530618,2.650025 -7.290999,5.276184 -0.808129,1.206714 -1.44827,2.583416 -1.881653,3.971022 -0.549694,1.764354 0.452261,3.165908 1.869734,3.962119 1.564555,0.879669 3.302057,1.595351 5.053506,1.970098 2.507875,0.537748 5.103209,0.653075 7.645853,1.049658 0.882687,0.138065 2.000955,0.221749 1.980076,1.60434 -0.01972,1.341904 -0.938332,1.68284 -2.010872,1.764354 -0.913481,0.06847 -1.835923,0.01409 -2.754391,0.01409"
       style="fill:#462d7f;fill-opacity:1;fill-rule:nonzero;stroke:none;stroke-width:0.352778"
       id="path30220" />
    <path
       d="m 98.400043,26.734692 c -0.723633,3.427329 -1.325989,6.829778 -2.173876,10.169648 -1.372729,5.40836 -2.865715,10.78891 -4.395472,16.155512 -0.633182,2.220616 -1.442297,4.396487 -2.268318,6.555452 -0.505965,1.324013 -1.169944,1.337932 -2.020817,0.169059 -0.912495,-1.254444 -0.802155,-2.665916 -0.490045,-4.037659 0.640141,-2.808039 1.538717,-5.56443 2.046654,-8.393347 1.093416,-6.090259 3.398505,-11.815717 5.074385,-17.729056 0.308138,-1.087443 0.442342,-2.22456 0.658033,-3.337869 0.09946,-0.512896 0.0696,-1.115252 0.338963,-1.513865 0.277256,-0.410503 0.836954,-0.839912 1.293187,-0.862792 0.465193,-0.02254 1.159997,0.320085 1.385634,0.714697 0.347892,0.607343 0.382692,1.39558 0.551672,2.110276"
       style="fill:#462d7f;fill-opacity:1;fill-rule:nonzero;stroke:none;stroke-width:0.352778"
       id="path30224" />
    <path
       d="m 115.3151,60.677895 c -0.67691,-0.889615 -1.28327,-1.659988 -1.86077,-2.452198 -0.61729,-0.843913 -1.16,-1.747448 -1.82201,-2.553605 -0.96318,-1.173916 -2.54365,-1.347849 -3.72154,-0.352853 -1.93832,1.639109 -4.20762,2.602293 -6.57834,3.345814 -1.968117,0.618276 -3.48993,-0.499005 -4.863645,-1.635137 -1.767341,-1.461175 -2.106275,-3.706642 -1.208714,-5.84873 1.426405,-3.40645 4.206632,-5.25229 7.444109,-6.576303 1.12618,-0.460234 2.27925,-0.903563 3.4621,-1.169943 1.70174,-0.382693 3.75536,0.581478 4.45811,2.044654 0.21555,0.450288 0.33499,1.376702 0.12623,1.511893 -0.43933,0.285258 -1.2097,0.402557 -1.69279,0.21076 -1.05264,-0.419464 -1.83891,-1.404513 -3.23347,-0.927401 -1.96117,0.66998 -3.95116,1.287242 -5.24536,2.999921 -0.931377,1.232551 -1.784247,2.580429 -2.354797,4.003847 -0.25837,0.6431 -0.003,1.984018 0.48608,2.310048 0.6103,0.407544 1.875677,0.408531 2.551597,0.03269 1.96215,-1.089415 3.91239,-2.29317 5.60021,-3.759304 1.62421,-1.4095 3.05456,-1.153066 4.26426,0.02254 1.43038,1.390593 2.82894,2.826945 4.1112,4.352729 1.11925,1.329985 1.1421,3.107272 0.0775,4.441202"
       style="fill:#462d7f;fill-opacity:1;fill-rule:nonzero;stroke:none;stroke-width:0.352778"
       id="path30228" />
    <path
       d="m 57.069837,143.71508 c -2.672506,0 -4.657809,-2.17245 -4.657809,-4.91809 v -0.0275 c 0,-2.71767 1.94549,-4.94495 4.73631,-4.94495 1.712123,0 2.737043,0.60118 3.581276,1.47553 l -1.272248,1.5433 c -0.700129,-0.66895 -1.414251,-1.0787 -2.322991,-1.0787 -1.530399,0 -2.633819,1.33895 -2.633819,2.97794 v 0.0275 c 0,1.64009 1.076532,3.0059 2.633819,3.0059 1.038883,0 1.674474,-0.43661 2.387497,-1.12062 l 1.27228,1.35292 c -0.934592,1.0518 -1.972407,1.70784 -3.724315,1.70784"
       style="fill:#462d7f;fill-opacity:1;fill-rule:nonzero;stroke:none;stroke-width:0.352778"
       id="path30232" />
    <path
       d="m 65.947959,138.26422 c -1.310996,0 -2.115415,0.83348 -2.115415,2.58219 v 2.70475 h -1.972408 v -7.32171 h 1.972408 v 1.47446 c 0.402194,-1.01093 1.051778,-1.66698 2.219736,-1.6121 v 2.17241 z"
       style="fill:#462d7f;fill-opacity:1;fill-rule:nonzero;stroke:none;stroke-width:0.352778"
       id="path30236" />
    <path
       d="m 73.423476,140.61377 h -4.840631 c 0.194802,0.94209 0.818413,1.43467 1.700295,1.43467 0.661412,0 1.142137,-0.21827 1.687399,-0.75177 l 1.128145,1.05182 c -0.648517,0.84745 -1.583079,1.3669 -2.841365,1.3669 -2.089625,0 -3.633986,-1.54436 -3.633986,-3.78452 v -0.0275 c 0,-2.09068 1.415317,-3.81143 3.439336,-3.81143 2.32299,0 3.386597,1.8982 3.386597,3.97489 v 0.0275 c 0,0.20547 -0.01219,0.32909 -0.02439,0.51944 m -4.100719,-5.19125 -1.660511,-1.63898 1.699229,-0.77863 1.466928,2.41761 z m 0.739912,2.33593 c -0.817345,0 -1.349711,0.61513 -1.505644,1.55725 h 2.971476 c -0.11615,-0.92919 -0.635591,-1.55725 -1.465832,-1.55725"
       style="fill:#462d7f;fill-opacity:1;fill-rule:nonzero;stroke:none;stroke-width:0.352778"
       id="path30240" />
    <path
       d="m 77.876181,143.71508 c -2.089596,0 -3.619996,-1.69386 -3.619996,-3.78455 v -0.0275 c 0,-2.09069 1.517474,-3.81142 3.645817,-3.81142 1.310995,0 2.128341,0.4646 2.776827,1.22925 l -1.206644,1.36583 c -0.440942,-0.49148 -0.881883,-0.80552 -1.583078,-0.80552 -0.986204,0 -1.686335,0.91521 -1.686335,1.9939 v 0.0275 c 0,1.12065 0.687236,2.02186 1.764834,2.02186 0.661413,0 1.115249,-0.30119 1.595974,-0.77862 l 1.153966,1.22926 c -0.674308,0.77862 -1.452937,1.33894 -2.841365,1.33894"
       style="fill:#462d7f;fill-opacity:1;fill-rule:nonzero;stroke:none;stroke-width:0.352778"
       id="path30244" />
    <path
       d="m 86.078836,143.55095 v -4.08459 c 0,-0.98404 -0.440942,-1.48842 -1.193779,-1.48842 -0.752807,0 -1.233532,0.50438 -1.233532,1.48842 v 4.08459 h -1.971341 v -9.97273 h 1.971341 v 3.68883 c 0.454903,-0.61516 1.038883,-1.17439 2.037981,-1.17439 1.491653,0 2.361707,1.03781 2.361707,2.71769 v 4.7406 z"
       style="fill:#462d7f;fill-opacity:1;fill-rule:nonzero;stroke:none;stroke-width:0.352778"
       id="path30248" />
    <path
       d="m 95.903687,140.61377 h -4.840665 c 0.194802,0.94209 0.818443,1.43467 1.700326,1.43467 0.662478,0 1.142136,-0.21827 1.687368,-0.75177 l 1.128171,1.05182 c -0.648513,0.84745 -1.583075,1.3669 -2.841361,1.3669 -2.089624,0 -3.633985,-1.54436 -3.633985,-3.78452 v -0.0275 c 0,-2.09068 1.415316,-3.81143 3.439335,-3.81143 2.32299,0 3.386601,1.8982 3.386601,3.97489 v 0.0275 c 0,0.20547 -0.0122,0.32909 -0.0244,0.51944 m -3.360808,-2.85532 c -0.817375,0 -1.349711,0.61513 -1.505644,1.55725 h 2.971476 c -0.11615,-0.92919 -0.635591,-1.55725 -1.465832,-1.55725"
       style="fill:#462d7f;fill-opacity:1;fill-rule:nonzero;stroke:none;stroke-width:0.352778"
       id="path30252" />
    <path
       d="m 104.7819,143.68753 c -1.05071,0 -1.7003,-0.50546 -2.16703,-1.09266 v 3.14143 h -1.97241 v -9.50707 h 1.97241 v 1.05181 c 0.47962,-0.684 1.14213,-1.18838 2.16703,-1.18838 1.62179,0 3.16615,1.33785 3.16615,3.78345 v 0.0275 c 0,2.44454 -1.51854,3.78346 -3.16615,3.78346 m 1.19377,-3.81141 c 0,-1.21634 -0.77865,-2.02185 -1.70032,-2.02185 -0.92057,0 -1.6863,0.80551 -1.6863,2.02185 v 0.0275 c 0,1.21527 0.76573,2.02186 1.6863,2.02186 0.92167,0 1.70032,-0.79259 1.70032,-2.02186 z"
       style="fill:#462d7f;fill-opacity:1;fill-rule:nonzero;stroke:none;stroke-width:0.352778"
       id="path30256" />
    <path
       d="m 113.15304,143.55095 v -0.79262 c -0.47963,0.56032 -1.14214,0.9292 -2.10252,0.9292 -1.3099,0 -2.3875,-0.7926 -2.3875,-2.24016 v -0.0275 c 0,-1.59814 1.15504,-2.33592 2.80266,-2.33592 0.70119,0 1.20773,0.12378 1.70029,0.3012 v -0.12377 c 0,-0.86035 -0.50548,-1.33785 -1.49168,-1.33785 -0.75281,0 -1.28515,0.14937 -1.92077,0.39576 l -0.49256,-1.58524 c 0.76467,-0.35488 1.51855,-0.58718 2.69833,-0.58718 2.15414,0 3.10162,1.17546 3.10162,3.15646 v 4.24805 z m 0.0399,-2.94998 c -0.33771,-0.16463 -0.77862,-0.27437 -1.25937,-0.27437 -0.84314,0 -1.36262,0.35598 -1.36262,1.01093 v 0.0275 c 0,0.56028 0.44095,0.88725 1.07763,0.88725 0.92061,0 1.54436,-0.53237 1.54436,-1.28411 z"
       style="fill:#462d7f;fill-opacity:1;fill-rule:nonzero;stroke:none;stroke-width:0.352778"
       id="path30260" />
    <path
       d="m 120.52555,138.26422 c -1.31099,0 -2.11545,0.83348 -2.11545,2.58219 v 2.70475 h -1.97237 v -7.32171 h 1.97237 v 1.47446 c 0.40222,-1.01093 1.05074,-1.66698 2.21977,-1.6121 v 2.17241 z"
       style="fill:#462d7f;fill-opacity:1;fill-rule:nonzero;stroke:none;stroke-width:0.352778"
       id="path30264" />
    <path
       d="m 127.80434,140.61377 h -4.84063 c 0.1948,0.94209 0.81842,1.43467 1.7003,1.43467 0.66248,0 1.14214,-0.21827 1.68739,-0.75177 l 1.12815,1.05182 c -0.64849,0.84745 -1.58307,1.3669 -2.84137,1.3669 -2.08959,0 -3.63395,-1.54436 -3.63395,-3.78452 v -0.0275 c 0,-2.09068 1.41529,-3.81143 3.43931,-3.81143 2.32298,0 3.38662,1.8982 3.38662,3.97489 v 0.0275 c 0,0.20547 -0.0122,0.32909 -0.0243,0.51944 m -3.36081,-2.85532 c -0.81734,0 -1.34968,0.61513 -1.50564,1.55725 h 2.97257 c -0.11737,-0.92919 -0.63665,-1.55725 -1.46693,-1.55725"
       style="fill:#462d7f;fill-opacity:1;fill-rule:nonzero;stroke:none;stroke-width:0.352778"
       id="path30268" />
    <path
       d="m 133.3733,143.55095 v -4.08459 c 0,-0.98404 -0.44094,-1.48842 -1.19377,-1.48842 -0.75281,0 -1.23247,0.50438 -1.23247,1.48842 v 4.08459 h -1.97241 v -7.32172 h 1.97241 v 1.03782 c 0.45383,-0.61516 1.03781,-1.17439 2.03691,-1.17439 1.49276,0 2.36171,1.03781 2.36171,2.71769 v 4.7406 z"
       style="fill:#462d7f;fill-opacity:1;fill-rule:nonzero;stroke:none;stroke-width:0.352778"
       id="path30272" />
    <path
       d="m 139.08398,143.6742 c -1.20667,0 -2.02402,-0.50548 -2.02402,-2.19931 v -3.4705 h -0.83026 v -1.77559 h 0.83026 v -1.87128 h 1.97238 v 1.87128 h 1.63579 v 1.77559 h -1.63579 v 3.12852 c 0,0.47855 0.1948,0.70979 0.63669,0.70979 0.36241,0 0.6872,-0.0958 0.97221,-0.25913 v 1.66698 c -0.41511,0.25911 -0.89588,0.42371 -1.55726,0.42371"
       style="fill:#462d7f;fill-opacity:1;fill-rule:nonzero;stroke:none;stroke-width:0.352778"
       id="path30276" />
    <path
       d="m 145.87193,143.55095 v -0.79262 c -0.47966,0.56032 -1.14214,0.9292 -2.10252,0.9292 -1.3099,0 -2.38749,-0.7926 -2.38749,-2.24016 v -0.0275 c 0,-1.59814 1.15503,-2.33592 2.80262,-2.33592 0.70122,0 1.20773,0.12378 1.70032,0.3012 v -0.12377 c 0,-0.86035 -0.50548,-1.33785 -1.49168,-1.33785 -0.75281,0 -1.28518,0.14937 -1.92077,0.39576 l -0.49256,-1.58524 c 0.76467,-0.35488 1.51748,-0.58718 2.69833,-0.58718 2.15414,0 3.10162,1.17546 3.10162,3.15646 v 4.24805 z m 0.0399,-2.94998 c -0.33771,-0.16463 -0.77865,-0.27437 -1.25937,-0.27437 -0.84314,0 -1.36262,0.35598 -1.36262,1.01093 v 0.0275 c 0,0.56028 0.44095,0.88725 1.07763,0.88725 0.92058,0 1.54436,-0.53237 1.54436,-1.28411 z"
       style="fill:#462d7f;fill-opacity:1;fill-rule:nonzero;stroke:none;stroke-width:0.352778"
       id="path30280" />
    <path
       d="m 149.24857,133.57813 h 1.97236 v 9.97272 h -1.97236 z"
       style="fill:#462d7f;fill-opacity:1;fill-rule:nonzero;stroke:none;stroke-width:0.352778"
       id="path30282" />
    <path
       d="m 159.21453,140.61377 h -4.84066 c 0.19479,0.94209 0.81734,1.43467 1.70029,1.43467 0.66141,0 1.14107,-0.21827 1.68633,-0.75177 l 1.12924,1.05182 c -0.64958,0.84745 -1.58307,1.3669 -2.84137,1.3669 -2.08962,0 -3.63397,-1.54436 -3.63397,-3.78452 v -0.0275 c 0,-2.09068 1.41421,-3.81143 3.4393,-3.81143 2.32192,0 3.38662,1.8982 3.38662,3.97489 v 0.0275 c 0,0.20547 -0.0122,0.32909 -0.0243,0.51944 m -3.36083,-2.85532 c -0.81735,0 -1.34969,0.61513 -1.50562,1.55725 h 2.97147 c -0.11615,-0.92919 -0.63559,-1.55725 -1.46585,-1.55725"
       style="fill:#462d7f;fill-opacity:1;fill-rule:nonzero;stroke:none;stroke-width:0.352778"
       id="path30294" />
    <path
       d="m 113.26361,150.4681 c -1.01953,0.54633 -1.96917,1.23352 -2.73275,2.1251 -0.80334,0.93779 -0.87111,2.17349 -0.21491,3.21238 0.48932,0.77542 1.20451,1.30023 2.02398,1.64331 1.08193,0.45278 1.87885,0.30333 2.66178,-0.64741 0.85607,-1.04105 1.18945,-2.28751 1.26688,-3.69207 -0.0183,-0.60763 -0.12041,-1.27441 -0.5205,-1.85087 -0.79263,-1.14106 -1.3067,-1.42174 -2.48433,-0.79044 m 1.47983,3.17688 c -0.19267,0.75607 -0.40976,1.50995 -1.04641,2.03585 -0.35814,0.29479 -0.73132,0.65065 -1.24216,0.46782 -0.59475,-0.21309 -0.81305,-0.74744 -0.90338,-1.32282 -0.14847,-0.93779 0.56569,-1.74331 1.39809,-1.78419 0.11188,-0.006 0.21951,-0.0966 0.3291,-0.14938 -0.0153,-0.0387 -0.0311,-0.0783 -0.0473,-0.11737 -0.21614,-0.0924 -0.43341,-0.18596 -0.7023,-0.30119 0.42912,-0.46137 0.90342,-0.76144 1.468,-0.89048 0.2634,-0.0612 0.60335,0.23443 0.72919,0.54526 0.20333,0.50439 0.14511,1.01416 0.0183,1.51637"
       style="fill:#ef373e;fill-opacity:1;fill-rule:nonzero;stroke:none;stroke-width:0.352778"
       id="path30298" />
    <path
       d="m 71.447867,150.68209 c -1.044279,-0.9163 -1.611064,-1.0647 -2.601537,-0.16675 -0.858225,0.7765 -1.613197,1.67235 -2.139101,2.72199 -0.552793,1.10448 -0.320493,2.31976 0.567852,3.16939 0.662479,0.63342 1.483056,0.97004 2.361707,1.10555 1.158264,0.17864 1.896011,-0.15913 2.425146,-1.27118 0.579681,-1.21744 0.602271,-2.50798 0.337688,-3.88888 -0.164622,-0.58504 -0.424784,-1.20773 -0.951755,-1.67017 m -0.922764,4.78686 c -0.275283,0.37213 -0.551695,0.80767 -1.090494,0.7539 -0.629159,-0.0625 -0.970078,-0.52914 -1.197011,-1.06577 -0.369941,-0.87329 0.128039,-1.82828 0.924898,-2.0681 0.10761,-0.0324 0.189313,-0.14847 0.282904,-0.22468 -0.02439,-0.0344 -0.04847,-0.0689 -0.07316,-0.10332 -0.2323,-0.0376 -0.465666,-0.0753 -0.754972,-0.12165 0.305434,-0.55279 0.693696,-0.95717 1.209905,-1.21957 0.240835,-0.12255 0.642055,0.0817 0.838868,0.35275 0.319396,0.43984 0.386068,0.94962 0.383933,1.46799 -0.003,0.77971 -0.03323,1.56373 -0.524837,2.22834"
       style="fill:#ef373e;fill-opacity:1;fill-rule:nonzero;stroke:none;stroke-width:0.352778"
       id="path30302" />
    <path
       d="m 54.230394,150.07995 c 0.0881,0.0183 0.165535,0.001 0.233518,-0.0558 0.552793,-0.29998 0.992637,-0.56785 1.912169,-1.32713 0.03323,-0.0275 0.09877,-0.0741 0.196631,-0.13778 0.224677,-0.14634 0.381799,-0.27194 0.472128,-0.37641 0.07316,-0.0894 0.120417,-0.17864 0.140842,-0.2698 0.02439,-0.10549 0.01219,-0.21309 -0.0311,-0.32156 -0.03658,-0.0902 -0.07621,-0.16462 -0.117368,-0.22376 -0.07195,-0.1043 -0.157001,-0.16767 -0.25364,-0.18932 -0.103348,-0.0213 -0.266748,0.0183 -0.490418,0.12164 l -0.02439,0.0153 c -0.818442,0.38822 -1.238928,0.6087 -1.854094,1.18621 l -0.03049,0.0305 c -0.303329,0.28289 -0.481791,0.53019 -0.534501,0.74207 l -0.003,0.0183 c -0.04421,0.19694 0.0061,0.40223 0.153951,0.61518 0.06554,0.0969 0.142977,0.15608 0.23108,0.17528"
       style="fill:#ef373e;fill-opacity:1;fill-rule:nonzero;stroke:none;stroke-width:0.352778"
       id="path30306" />
    <path
       d="m 79.229765,151.81564 c -0.09237,-0.0634 -0.212788,-0.0958 -0.363509,-0.0958 h -0.07743 c -0.09146,0.009 -0.194802,0.0275 -0.3065,0.0582 -0.106399,0.0305 -0.182913,0.0463 -0.230165,0.0515 l -0.302111,0.0375 c -0.11615,0.0183 -0.240835,0.0324 -0.37424,0.0451 -0.0881,0.003 -0.180778,0.006 -0.276502,0.0122 l -0.378537,0.0324 c -0.246323,0.0213 -0.493655,0.0442 -0.742081,0.0698 l -0.185046,0.0183 c -0.105479,0.009 -0.253639,0.0153 -0.44524,0.0153 H 75.34842 c -0.09572,-0.003 -0.180779,-0.006 -0.256078,-0.006 -0.07103,0 -0.13444,0.002 -0.189314,0.006 -0.102125,0 -0.194498,0.003 -0.276503,0.0122 -0.365643,0.0305 -0.579681,0.271 -0.645286,0.72377 -0.06462,0.19999 -0.09694,0.38178 -0.09694,0.54417 v 0.0634 c 0.0092,0.14938 0.04725,0.28382 0.113101,0.4033 0.06127,0.10213 0.140843,0.16034 0.239921,0.17315 0.07865,0.0122 0.159134,0.0183 0.240835,0.0183 0.04847,0 0.09664,-0.002 0.148463,-0.006 0.04725,-0.003 0.09786,-0.009 0.148464,-0.0183 0.09573,-0.0183 0.182913,-0.0305 0.261261,-0.0387 l 0.481792,-0.0311 1.064707,-0.0902 c 0.119502,-0.0122 0.236566,-0.0243 0.352746,-0.0324 0.342016,-0.0305 0.645286,-0.0451 0.912003,-0.0451 h 0.09694 c 0.105479,0.003 0.19785,0.006 0.276503,0.006 0.0817,0 0.148464,-0.003 0.199984,-0.006 0.149379,-0.0122 0.383934,-0.0698 0.701196,-0.17194 0.191448,-0.0646 0.310799,-0.2515 0.358143,-0.56352 0.01524,-0.0677 0.02134,-0.13444 0.02134,-0.19785 0,-0.0243 -0.0011,-0.0506 -0.0061,-0.0762 -0.0092,-0.49148 -0.09907,-0.79368 -0.265528,-0.90983"
       style="fill:#ef373e;fill-opacity:1;fill-rule:nonzero;stroke:none;stroke-width:0.352778"
       id="path30310" />
    <path
       d="m 86.079477,150.48455 h -0.01219 c -0.674307,0 -1.371204,0.3979 -2.092825,1.19589 -0.631293,0.70013 -1.034584,1.3723 -1.208809,2.01649 -0.0689,-1.06254 -0.337717,-1.73901 -0.806614,-2.02832 -0.09907,-0.06 -0.196936,-0.0902 -0.294793,-0.0902 -0.08933,0 -0.177426,0.0275 -0.262481,0.0838 -0.179558,0.12804 -0.309732,0.36457 -0.390365,0.70979 0,0.8496 0.09786,1.72182 0.294794,2.61766 0.242968,1.12171 0.579649,1.87992 1.010928,2.27245 0.175291,0.15822 0.334455,0.23656 0.479657,0.23656 0.337687,0 0.595807,-0.41618 0.774331,-1.24858 0.247236,-1.13461 0.695798,-2.12728 1.344315,-2.97474 0.588278,-0.77754 1.322825,-1.3895 2.201446,-1.83795 0.01828,-0.0506 0.02439,-0.1 0.02439,-0.14724 0,-0.18718 -0.110663,-0.3646 -0.333389,-0.5302 -0.247237,-0.18383 -0.490419,-0.27529 -0.729151,-0.27529"
       style="fill:#ef373e;fill-opacity:1;fill-rule:nonzero;stroke:none;stroke-width:0.352778"
       id="path30314" />
    <path
       d="m 95.061278,154.43275 c -0.15822,0 -0.392561,0.11524 -0.704426,0.34522 -0.174378,0.13322 -0.596906,0.58938 -1.266915,1.37014 -0.498985,0.58828 -0.998001,0.93889 -1.497018,1.04964 -0.119502,0.0243 -0.234433,0.0375 -0.346314,0.0375 -0.388232,0 -0.731314,-0.16127 -1.030286,-0.48609 -0.140842,-0.15395 -0.214922,-0.27528 -0.223762,-0.36461 v -0.0122 c 0,-0.0719 0.04512,-0.1323 0.13444,-0.17956 0.03871,-0.0153 0.153951,-0.0592 0.345217,-0.12804 0.171023,-0.0592 0.307598,-0.12377 0.409755,-0.19145 0.626993,-0.40976 0.941024,-0.94962 0.941024,-1.61963 0,-0.22589 -0.03658,-0.4689 -0.108528,-0.72915 -0.277418,-0.57645 -0.611934,-1.00879 -1.005562,-1.29917 -0.345217,-0.25607 -0.716255,-0.38393 -1.113084,-0.38393 -0.145111,0 -0.29266,0.0183 -0.442008,0.0506 -1.095891,0.24418 -1.702459,0.74528 -1.817542,1.50458 -0.06341,0.42265 -0.09572,0.81088 -0.09572,1.16469 0,0.83994 0.179559,1.50241 0.537702,1.98424 1.053973,1.41638 2.205774,2.12401 3.455463,2.12401 0.252724,0 0.505479,-0.0275 0.762502,-0.0829 0.707658,-0.24723 1.405622,-0.75497 2.091758,-1.52393 0.704427,-0.79259 1.107719,-1.54973 1.209906,-2.27135 0,-0.2387 -0.07866,-0.35814 -0.236567,-0.35814 m -5.797812,0.87758 c -0.290221,-0.21401 -0.435545,-0.60657 -0.435545,-1.17762 0,-0.25608 0.04847,-0.45707 0.147245,-0.60227 0.09359,-0.14085 0.225897,-0.21065 0.396829,-0.21065 0.03049,0 0.06127,0.002 0.09572,0.006 0.264614,0.0344 0.464598,0.15822 0.601173,0.37211 0.103347,0.157 0.153951,0.33878 0.153951,0.5442 0,0.0421 -0.0022,0.085 -0.0061,0.12804 -0.02439,0.26033 -0.119503,0.47748 -0.281686,0.65171 -0.174376,0.19267 -0.398994,0.28931 -0.671076,0.28931"
       style="fill:#ef373e;fill-opacity:1;fill-rule:nonzero;stroke:none;stroke-width:0.352778"
       id="path30318" />
    <path
       d="m 100.47836,153.95237 c -1.830443,-0.66895 -2.845663,-1.03245 -3.046773,-1.0873 l -0.0506,-0.0451 c -0.0344,-0.0305 -0.0515,-0.0741 -0.0515,-0.13445 0,-0.13657 0.2012,-0.25364 0.60227,-0.35165 0.003,0 0.37534,-0.0592 1.11308,-0.17956 0.30333,-0.072 0.50978,-0.19145 0.62056,-0.35811 0.0558,-0.085 0.0838,-0.17742 0.0838,-0.27528 0,-0.0677 -0.0153,-0.13993 -0.0451,-0.21737 -0.0731,-0.17102 -0.20547,-0.31405 -0.39685,-0.42911 -0.20425,-0.12377 -0.42911,-0.18504 -0.67214,-0.18504 h -0.11493 c -0.67861,0 -1.35724,0.20852 -2.03478,0.62592 -0.72592,0.44954 -1.08836,0.98405 -1.08836,1.60674 0,0.085 0.006,0.17315 0.0183,0.26248 0,0.62809 0.61624,1.13031 1.8498,1.50994 1.65081,0.51195 2.5144,0.7679 2.59183,0.7679 -0.30333,0.30757 -0.70226,0.46137 -1.19697,0.46137 -0.4646,0 -1.01306,-0.13445 -1.64436,-0.4033 -0.13657,-0.0592 -0.26035,-0.0894 -0.37213,-0.0894 -0.20852,0 -0.36241,0.11494 -0.46027,0.34522 -0.0604,0.13658 -0.0893,0.28596 -0.0893,0.44848 0,0.21309 0.0527,0.45061 0.15913,0.71086 0.10761,0.27223 0.43984,0.4474 0.9991,0.52377 0.20852,0.0305 0.43231,0.0451 0.67214,0.0451 0.33662,0 0.70766,-0.0305 1.11311,-0.0894 0.68291,-0.0978 1.288413,-0.25364 1.817523,-0.46783 0.56785,-0.23017 0.92166,-0.4818 1.06257,-0.75388 0.12803,-0.25607 0.19145,-0.49578 0.19145,-0.71735 0,-0.25272 -0.0829,-0.48073 -0.24938,-0.68506 -0.2515,-0.31188 -0.71196,-0.59148 -1.38196,-0.83885"
       style="fill:#ef373e;fill-opacity:1;fill-rule:nonzero;stroke:none;stroke-width:0.352778"
       id="path30322" />
    <path
       d="m 106.99325,151.13658 c -0.86572,-0.34092 -1.73042,-0.51192 -2.59184,-0.51192 h -0.18597 c -0.21308,0 -0.36673,0.0604 -0.4603,0.17956 -0.1323,0.17529 -0.21735,0.53127 -0.25607,1.06901 -0.0604,0.39146 -0.0894,1.1518 -0.0894,2.2778 0,1.08836 0.0275,2.51981 0.0829,4.2943 v 0.65283 c 0,0.71301 0.0243,1.25075 0.0762,1.6121 0.10214,0.68292 0.30973,1.11847 0.62163,1.30559 0.3194,0.19267 0.60546,0.28809 0.85712,0.28809 0.18292,0 0.32373,-0.0549 0.42266,-0.16553 0.0894,-0.10333 0.13444,-0.24085 0.13444,-0.4162 0,-0.0473 -0.002,-0.0957 -0.006,-0.14724 -0.10214,-0.84963 -0.16036,-2.00143 -0.17316,-3.45547 l -0.006,-0.23137 c 0,-0.16554 -0.0122,-0.37104 -0.0323,-0.61407 -0.009,-0.0936 -0.0122,-0.17438 -0.0122,-0.24297 0,-0.12804 0.0153,-0.21188 0.0451,-0.24968 0.0515,-0.0731 0.2259,-0.13871 0.52481,-0.19907 0.76789,-0.15273 1.47875,-0.56785 2.13157,-1.24106 0.66571,-0.69154 0.99803,-1.34435 0.99803,-1.95842 0,-0.23016 -0.0473,-0.45493 -0.14084,-0.6711 -0.27315,-0.65388 -0.9195,-1.17762 -1.93905,-1.57555 m 0.17956,2.21547 c -0.0731,0.45167 -0.28169,0.83994 -0.62808,1.16363 -0.34954,0.32049 -0.74637,0.49578 -1.18948,0.5259 v -0.0902 c 0,-0.17956 -0.0183,-0.46676 -0.0515,-0.8636 -0.0387,-0.43557 -0.0579,-0.78939 -0.0579,-1.06257 0,-0.35811 0.0324,-0.58398 0.0969,-0.67861 0.0979,-0.043 0.2195,-0.0634 0.36457,-0.0634 0.13232,0 0.2817,0.0183 0.44741,0.0506 0.38824,0.0775 0.67431,0.22467 0.8582,0.44091 0.11524,0.13353 0.17225,0.28382 0.17225,0.45493 0,0.0387 -0.003,0.0795 -0.0122,0.12255"
       style="fill:#ef373e;fill-opacity:1;fill-rule:nonzero;stroke:none;stroke-width:0.352778"
       id="path30326" />
    <path
       d="m 123.13287,155.19473 c -0.0549,-0.31189 -0.13017,-0.77755 -0.22376,-1.39595 -0.25272,-1.73579 -0.55493,-3.01129 -0.90873,-3.82647 -0.12378,-0.26035 -0.32266,-0.3904 -0.59581,-0.3904 -0.2259,0 -0.48613,0.0894 -0.7808,0.26888 -0.21736,0.13535 -0.37534,0.26035 -0.47319,0.37104 -0.12805,0.14847 -0.29693,0.3861 -0.50548,0.70979 -0.22681,0.35062 -0.40976,0.60011 -0.55063,0.74961 -0.0213,-0.13322 -0.17102,-0.22803 -0.44847,-0.28809 -0.11493,-0.0243 -0.22163,-0.0374 -0.3194,-0.0374 -0.24723,0 -0.4517,0.0762 -0.6141,0.23017 -0.23138,0.20851 -0.34844,0.53772 -0.35274,0.98406 -0.003,0.22682 -0.0506,0.64743 -0.14084,1.2615 -0.10214,0.70442 -0.15274,1.2884 -0.15274,1.75406 0,0.51194 0.0612,0.87866 0.18505,1.10022 0.20547,0.36348 0.43771,0.54416 0.69796,0.54416 0.30333,0 0.58614,-0.2259 0.8507,-0.67753 0.23016,-0.39363 0.34845,-0.74315 0.35275,-1.04964 0.009,-0.71303 0.1195,-1.30777 0.33232,-1.78633 0.26035,-0.58074 0.70979,-1.10559 1.35078,-1.57448 0.0592,0.22255 0.14298,0.73454 0.24936,1.53576 0.15365,1.17333 0.29358,1.99927 0.42159,2.47676 0.21401,0.81092 0.50224,1.24862 0.86466,1.31206 0.1323,0.0244 0.2515,0.0387 0.35814,0.0387 0.27315,0 0.47107,-0.0795 0.59475,-0.23657 0.0775,-0.10214 0.11614,-0.26247 0.11614,-0.48072 0,-0.26889 -0.0579,-0.61947 -0.17315,-1.05504 -0.0731,-0.25607 -0.11737,-0.43555 -0.13444,-0.5377"
       style="fill:#ef373e;fill-opacity:1;fill-rule:nonzero;stroke:none;stroke-width:0.352778"
       id="path30330" />
    <path
       d="m 129.52626,153.95237 c -1.83042,-0.66895 -2.84567,-1.03245 -3.04679,-1.0873 l -0.0506,-0.0451 c -0.0344,-0.0305 -0.0515,-0.0741 -0.0515,-0.13445 0,-0.13657 0.20121,-0.25364 0.60227,-0.35165 0.003,0 0.37533,-0.0592 1.11308,-0.17956 0.30333,-0.072 0.50978,-0.19145 0.62054,-0.35811 0.0558,-0.085 0.0839,-0.17742 0.0839,-0.27528 0,-0.0677 -0.0153,-0.13993 -0.0451,-0.21737 -0.0731,-0.17102 -0.20547,-0.31405 -0.39682,-0.42911 -0.20425,-0.12377 -0.42911,-0.18504 -0.67217,-0.18504 h -0.11494 c -0.67864,0 -1.35618,0.20852 -2.03478,0.62592 -0.72591,0.44954 -1.08836,0.98405 -1.08836,1.60674 0,0.085 0.006,0.17315 0.0183,0.26248 0,0.62809 0.61623,1.13031 1.84979,1.50994 1.65083,0.51195 2.51441,0.7679 2.59185,0.7679 -0.30334,0.30757 -0.70227,0.46137 -1.19698,0.46137 -0.4646,0 -1.01309,-0.13445 -1.64439,-0.4033 -0.13657,-0.0592 -0.26034,-0.0894 -0.3721,-0.0894 -0.20852,0 -0.36242,0.11494 -0.4603,0.34522 -0.0604,0.13658 -0.0894,0.28596 -0.0894,0.44848 0,0.21309 0.0527,0.45061 0.15913,0.71086 0.10766,0.27223 0.43988,0.4474 0.9991,0.52377 0.20853,0.0305 0.43235,0.0451 0.67217,0.0451 0.33663,0 0.70766,-0.0305 1.11309,-0.0894 0.68293,-0.0978 1.28841,-0.25364 1.81754,-0.46783 0.56786,-0.23017 0.92167,-0.4818 1.06255,-0.75388 0.12803,-0.25607 0.19145,-0.49578 0.19145,-0.71735 0,-0.25272 -0.0829,-0.48073 -0.24968,-0.68506 -0.25151,-0.31188 -0.71196,-0.59148 -1.38197,-0.83885"
       style="fill:#ef373e;fill-opacity:1;fill-rule:nonzero;stroke:none;stroke-width:0.352778"
       id="path30334" />
    <path
       d="m 147.5218,151.73745 c -0.57214,-0.13658 -1.08622,-0.22042 -1.5422,-0.25059 -0.30972,-0.0213 -0.59257,-0.0153 -0.84746,0.0152 -0.83134,0.0936 -1.53039,0.44094 -2.09608,1.03998 -0.10214,-0.57968 -0.12805,-1.25509 -0.0763,-2.02618 0.0332,-0.50116 0.0213,-0.27956 0.12042,-0.8636 0.0122,-0.0668 0.0872,-0.28077 0.22255,-0.63882 0.15487,-0.40866 0.26674,-0.73022 0.33339,-0.96575 0.0676,-0.2387 0.10765,-0.4463 0.11828,-0.62053 0.0305,-0.4431 -0.11707,-0.67433 -0.44094,-0.69583 l -0.0765,-0.006 c -0.96681,-0.0646 -1.51424,0.51947 -1.80245,3.28446 -0.0344,0.32693 -0.0656,0.6969 -0.0936,1.10986 -0.043,0.64314 -0.0775,1.38842 -0.1043,2.23802 -0.0375,1.13894 -0.0677,1.87885 -0.0902,2.2187 l -0.0122,0.14725 c -0.006,0.0558 -0.0122,0.10765 -0.0153,0.15913 -0.043,0.63882 0.14511,1.13675 0.56679,1.49382 0.33122,0.27955 0.75067,0.43554 1.25829,0.4689 0.14419,0.009 0.29571,0.009 0.45489,-0.001 0.78187,-0.0493 1.54007,-0.30333 2.27675,-0.75927 0.69584,-0.43125 1.27551,-0.98727 1.74011,-1.66588 0.37854,-0.5388 0.63235,-1.2088 0.76357,-2.0079 0.0213,-0.13107 0.0354,-0.25363 0.0442,-0.36886 0.0493,-0.74961 -0.18382,-1.18409 -0.70225,-1.30454 m -1.32066,2.6822 c -0.19786,0.40222 -0.40653,0.69367 -0.62377,0.87649 -0.5399,0.45923 -1.37014,0.73991 -2.49291,0.83993 0.0753,-1.00016 0.38393,-1.75084 0.92702,-2.25309 0.45171,-0.428 1.0131,-0.61945 1.68634,-0.57427 0.19572,0.0122 0.40113,0.0463 0.61517,0.0991 0.0753,0.0902 0.10852,0.21066 0.0978,0.35918 -0.0122,0.17865 -0.0817,0.39687 -0.20974,0.65281"
       style="fill:#ef373e;fill-opacity:1;fill-rule:nonzero;stroke:none;stroke-width:0.352778"
       id="path30338" />
    <path
       d="m 151.11835,146.82993 c -0.2582,-0.0366 -0.52913,0.0153 -0.81305,0.15273 l -0.0421,0.0183 -0.0122,0.0463 c -0.34738,1.45723 -0.48612,1.97671 -0.70442,3.51674 l -0.0515,0.36457 c -0.097,0.68294 -0.16676,1.35618 -0.20853,2.02079 -0.003,0.10127 -0.0183,0.31083 -0.0493,0.62809 -0.1881,1.97885 -0.0958,3.14247 0.27954,3.48769 0.17316,0.1634 0.33449,0.25607 0.48395,0.2765 0.14939,0.0213 0.28291,-0.0243 0.399,-0.13871 0.18505,-0.18078 0.30544,-0.46353 0.35921,-0.84639 0.0275,-0.19145 0.0375,-0.40759 0.031,-0.64849 -0.0396,-1.53147 0.0375,-2.98117 0.23231,-4.34914 0.0429,-0.30654 0.0948,-0.61087 0.1515,-0.91201 0.0122,-0.0558 0.0443,-0.20334 0.0966,-0.44417 0.16463,-0.74204 0.19999,-0.8313 0.27742,-1.37444 0.086,-0.60763 0.0719,-1.29377 -0.10853,-1.58844 -0.0765,-0.12163 -0.18291,-0.19145 -0.32155,-0.21066"
       style="fill:#ef373e;fill-opacity:1;fill-rule:nonzero;stroke:none;stroke-width:0.352778"
       id="path30342" />
    <path
       d="m 159.83979,155.11654 c -0.14512,-0.0612 -0.40654,-0.0451 -0.78293,0.0473 -0.2131,0.0549 -0.77864,0.31189 -1.6971,0.77433 -0.68827,0.34951 -1.28408,0.48072 -1.78739,0.38933 -0.1195,-0.0213 -0.23138,-0.0549 -0.33339,-0.0979 -0.35815,-0.14937 -0.61303,-0.43124 -0.7625,-0.84636 -0.0711,-0.19572 -0.0924,-0.33769 -0.0656,-0.42266 l 0.003,-0.0122 c 0.0275,-0.0668 0.0924,-0.10333 0.19358,-0.11279 0.0421,0 0.16462,0.003 0.36781,0.0153 0.18077,0.0122 0.33121,0.006 0.4517,-0.0183 0.73668,-0.13536 1.2346,-0.51192 1.49378,-1.13031 0.0872,-0.20853 0.14725,-0.44631 0.18078,-0.71516 -0.0332,-0.63882 -0.17529,-1.16689 -0.42481,-1.58631 -0.22041,-0.36997 -0.51298,-0.63129 -0.87865,-0.78403 -0.13445,-0.057 -0.27651,-0.0969 -0.42695,-0.12376 -1.10666,-0.19786 -1.8584,0.0305 -2.25846,0.68616 -0.22162,0.36458 -0.40115,0.71086 -0.53772,1.03672 -0.3248,0.77543 -0.41406,1.4551 -0.26981,2.03801 0.42482,1.71319 1.21422,2.81125 2.36711,3.29414 0.2323,0.0979 0.47749,0.1698 0.73452,0.21827 0.7496,0.0443 1.58954,-0.15486 2.51873,-0.59794 0.95609,-0.4603 1.6207,-1.00343 1.99391,-1.62933 0.0914,-0.21949 0.0646,-0.36027 -0.0808,-0.42158 m -5.68716,-1.42924 c -0.18597,-0.30973 -0.16767,-0.72701 0.0527,-1.25398 0.0991,-0.23657 0.22164,-0.40329 0.36888,-0.49902 0.13993,-0.0936 0.2893,-0.10765 0.4474,-0.0409 0.0275,0.0122 0.0558,0.0243 0.086,0.0421 0.23017,0.13444 0.36781,0.32586 0.41083,0.57538 0.0344,0.18505 0.0122,0.3721 -0.0677,0.56033 -0.0153,0.0396 -0.0354,0.0783 -0.0558,0.11615 -0.12377,0.23016 -0.29357,0.39469 -0.51084,0.49361 -0.23565,0.10976 -0.47966,0.11189 -0.73131,0.006"
       style="fill:#ef373e;fill-opacity:1;fill-rule:nonzero;stroke:none;stroke-width:0.352778"
       id="path30346" />
    <path
       d="m 65.474764,156.13436 c -0.211874,0.0183 -0.424815,0.0324 -0.596875,0.0443 l -0.196935,0.0122 c -0.81198,0.0829 -1.763766,-0.11281 -2.212237,-0.44635 -0.368874,-0.27436 -0.690434,-0.90444 -0.540934,-1.24859 0.233214,-0.53127 0.528039,-1.14213 0.942091,-1.64222 0.421584,-0.50977 1.052876,-0.80015 1.826139,-0.83779 0.09786,-0.007 0.429083,-0.0387 0.593643,-0.25913 0.132307,-0.17865 0.175291,-0.41083 0.120417,-0.65279 -0.06249,-0.27651 -0.248456,-0.52696 -0.485023,-0.65388 -0.920599,-0.48719 -1.719652,-0.0711 -2.314393,0.34628 -1.00233,0.70336 -1.788489,1.59598 -2.334818,2.65531 -0.355979,0.69044 -0.338785,1.50995 0.0022,2.19501 -0.163402,0.0741 -0.328024,0.14726 -0.49042,0.22377 -0.372105,0.17316 -0.756038,0.35275 -1.140002,0.51084 -0.560292,0.23352 -1.115248,0.42373 -1.650817,0.56892 -0.304245,0.086 -0.574285,-0.0344 -0.735614,-0.32266 -0.330157,-0.59257 -0.253944,-0.89478 0.322628,-1.29269 0.668942,-0.46244 1.395958,-1.06039 1.719683,-1.99068 0.395762,-1.14104 0.14633,-1.95841 -0.721651,-2.3617 -0.281685,-0.13109 -0.597941,-0.17651 -0.904441,-0.2195 -0.133223,-0.0213 -0.266748,-0.0387 -0.394696,-0.0646 l -0.02134,-0.006 -0.02134,0.009 c -0.120417,0.0493 -0.238701,0.0902 -0.352747,0.13018 -0.237786,0.0817 -0.462433,0.15914 -0.646351,0.29693 -0.737749,0.55386 -1.19375,1.36477 -1.357213,2.41225 -0.139928,0.89588 -0.119503,1.71429 0.06249,2.50151 0.320463,1.38197 1.261518,2.18213 2.513342,2.18213 0.169804,0 0.345217,-0.0153 0.525904,-0.0443 0.810882,-0.13535 1.587376,-0.5216 2.33805,-0.89478 l 0.05152,-0.0243 c 0.499017,-0.24846 0.949622,-0.60334 1.385197,-0.94855 0.003,0.006 0.0092,0.0122 0.01219,0.0152 0.689367,0.66677 1.465861,1.07223 2.374601,1.24 0.447405,0.0829 0.881883,0.12376 1.309929,0.12376 0.414054,0 0.823778,-0.0387 1.231399,-0.11492 0.453836,-0.085 0.728084,-0.46784 0.652785,-0.90984 -0.0311,-0.18079 -0.177426,-0.59257 -0.865727,-0.53344 m -9.798506,-2.70586 c -0.01219,-0.2893 0.0311,-0.83992 0.43771,-1.29377 0.246323,-0.27315 0.858226,-0.23351 1.21204,0.0808 0.126819,0.1128 0.199984,0.26767 0.206387,0.43555 0.0061,0.18718 -0.0689,0.37427 -0.216143,0.52697 -0.309732,0.32156 -0.636688,0.60764 -0.971143,0.84853 -0.169804,0.12255 -0.306501,0.16249 -0.407621,0.11402 -0.09999,-0.0473 -0.226812,-0.20853 -0.26126,-0.71196"
       style="fill:#ef373e;fill-opacity:1;fill-rule:nonzero;stroke:none;stroke-width:0.352778"
       id="path30350" />
    <path
       d="m 140.16125,156.15167 c -0.15609,-0.21827 -0.26035,-0.38393 -0.30863,-0.49254 -0.11189,-0.25151 -0.22468,-0.67325 -0.33663,-1.25186 -0.0357,-0.18719 -0.057,-0.29052 -0.0689,-0.33232 -0.009,-0.0429 -0.0275,-0.16128 -0.0625,-0.4775 -0.0914,-0.74314 -0.19145,-1.297 -0.2957,-1.64438 -0.0344,-0.11707 -0.0741,-0.21401 -0.10975,-0.29906 -0.006,-0.16036 -0.0443,-0.34309 -0.0979,-0.45601 -0.32157,-0.68396 -1.24109,-1.10985 -2.0025,-0.93779 -0.53989,0.12378 -1.07116,0.33663 -1.5261,0.52697 -1.73041,0.72165 -2.74564,1.63686 -3.29197,2.97041 -0.42158,1.02708 -0.2195,2.02402 0.54203,2.66607 0.65065,0.54957 1.3056,1.0174 2.17349,0.74098 1.27014,-0.40652 2.16599,-0.87112 2.90374,-1.50778 l 0.006,-0.006 0.10976,-0.32586 c 0.13565,0.23322 0.27314,0.57751 0.40865,1.02705 0.23138,0.74531 0.48935,1.25509 0.76897,1.51427 0.14084,0.13444 0.31833,0.20212 0.52803,0.20212 0.24968,0 0.48936,-0.0838 0.71196,-0.25059 0.22895,-0.16675 0.36567,-0.36134 0.40439,-0.58721 0,-0.28381 -0.15364,-0.64741 -0.45817,-1.07866 z m -2.75747,-3.89746 c -0.14846,0.46676 -0.27863,0.9808 -0.0914,1.68202 l -0.0153,0.009 c -0.0421,0.0311 -0.086,0.0634 -0.13017,0.10332 -0.80552,0.71303 -1.73472,1.27336 -2.45311,1.67988 -0.29478,0.16676 -0.8292,0.15791 -1.08085,-0.0122 -0.19572,-0.13322 -0.3108,-0.70656 -0.19999,-0.98941 0.22255,-0.56568 0.55923,-1.14966 1.03029,-1.78741 0.53557,-0.72379 1.36691,-1.0131 2.17025,-1.29164 l 0.11616,-0.0409 c 0.11066,-0.0374 0.21187,-0.0549 0.30543,-0.0549 0.17742,0 0.32696,0.0592 0.4646,0.13017 -0.006,0.18718 -0.0473,0.35385 -0.11737,0.57216"
       style="fill:#ef373e;fill-opacity:1;fill-rule:nonzero;stroke:none;stroke-width:0.352778"
       id="path30354" />
  </g>
</svg>
